SplineFontDB: 3.0
FontName: TudorRose
FullName: Tudor Rose
FamilyName: TudorRose
Weight: Medium
Copyright: Created by James Kilfiger with FontForge 2.0 (http://fontforge.sf.net)\nReleased to public domain.
UComments: "2009-7-12: Created." 
Version: 001.000
ItalicAngle: 0
UnderlinePosition: -100
UnderlineWidth: 50
Ascent: 850
Descent: 250
LayerCount: 2
Layer: 0 0 "Back"  1
Layer: 1 0 "Fore"  0
NeedsXUIDChange: 1
XUID: [1021 73 598634083 4737580]
FSType: 0
OS2Version: 0
OS2_WeightWidthSlopeOnly: 0
OS2_UseTypoMetrics: 1
CreationTime: 1247431371
ModificationTime: 1312024331
PfmFamily: 17
TTFWeight: 500
TTFWidth: 5
LineGap: 90
VLineGap: 90
OS2TypoAscent: 0
OS2TypoAOffset: 1
OS2TypoDescent: 0
OS2TypoDOffset: 1
OS2TypoLinegap: 90
OS2WinAscent: 0
OS2WinAOffset: 1
OS2WinDescent: 0
OS2WinDOffset: 1
HheadAscent: 0
HheadAOffset: 1
HheadDescent: 0
HheadDOffset: 1
OS2Vendor: 'PfEd'
Lookup: 258 0 0 "'kern' Horizontal Kerning in Latin lookup 0"  {"'kern' Horizontal Kerning in Latin lookup 0-1"  } ['kern' ('DFLT' <'dflt' > 'latn' <'dflt' > ) ]
MarkAttachClasses: 1
DEI: 91125

StartChar: C
Encoding: 67 67 1
Width: 717
VWidth: -1282
Flags: W
HStem: 0.073249 92.1768<269.965 466> 456 21G<561.598 606.5> 611.103 92.128<306.688 480.729>
VStem: 63.4785 91.0395<210.381 440.846> 569 88<185.127 249.818>
LayerCount: 2
Fore
SplineSet
365.19 0.073249 m 0
 200.01 0.073249 63.4785 129.338 63.4785 318.423 c 0
 63.4785 493.656 176.788 680.264 366 701 c 4
 373 702 379 703 386 703 c 4
 389.626 703.154 393.252 703.231 396.876 703.231 c 0
 535.691 703.231 626.186 598.698 639 509 c 4
 639 507 640 504 640 502 c 4
 640 477 619 456 594 456 c 4
 529.195 456 569.238 541.806 477 591 c 4
 452.548 604.041 424.11 611.103 395.476 611.103 c 0
 260.129 611.103 154.518 469.054 154.518 318.298 c 0
 154.518 191.255 240.573 92.25 367.06 92.25 c 0
 469.813 92.25 544.387 163.71 569 227 c 4
 575 243 594 256 611 256 c 4
 636 256 657 235 657 210 c 4
 657 173.486 564.385 0.073249 365.19 0.073249 c 0
EndSplineSet
EndChar

StartChar: D
Encoding: 68 68 2
Width: 758
VWidth: -1282
Flags: W
HStem: -0.103204 92.0675<273.699 486.161> 87 87<70.1824 135.354> 559.449 91.623<297.167 531.525> 626 88<115.182 160.478> 703 20G<181.29 194.5>
VStem: 213.407 91.864<200.502 561.513> 607.11 92.36<216.195 463.887>
LayerCount: 2
Back
SplineSet
156 714 m 0xb0
 161 714 169 712 174 710 c 0
 214 693 248 663 270 625 c 0
 288 594 298 560 302 528 c 0
 304.354 509.433 305.271 491.208 305.271 473.379 c 0
 305.271 423.029 297.954 375.833 295 333 c 0
 292 292 293 246 285 197 c 0
 278.569 159.331 268.761 128.415 268.761 104.251 c 0
 268.761 102.115 268.838 100.031 269 98 c 0
 270 86 273 73 278 62 c 0
 281 57 284 47 284 41 c 0
 284 16 262 -5 237 -5 c 0
 221 -5 203 7 196 22 c 0
 186 44 179 68 177 92 c 0
 176.715 96.6477 176.584 101.205 176.584 105.676 c 0
 176.584 148.335 188.569 183.035 194 212 c 0
 201 250 200 293 203 339 c 0
 206.777 388.857 213.407 434.719 213.407 476.587 c 0
 213.407 490.144 212.712 503.281 211 516 c 0
 208 539 201 561 191 578 c 0
 179 599 160 616 138 626 c 0
 122 633 109 651 109 668 c 0
 109 693 130 714 155 714 c 0
 156 714 l 0xb0
186 723 m 0
 187 723 187 723 188 723 c 0
 201 723 217 715 225 704 c 0
 244 678 275 658 307 653 c 0
 314.943 651.619 323.482 651.072 332.577 651.072 c 0
 349.816 651.072 369.051 653.036 390 655 c 0
 407.274 656.619 425.714 658.53 445.319 658.53 c 0
 462.032 658.53 479.593 657.142 498 653 c 0
 564 639 616 594 648 540 c 0
 680 487 694 428 698 371 c 0
 698.971 359.111 699.47 347.162 699.47 335.169 c 0
 699.47 297.736 694.603 259.868 684 222 c 0
 670 172 646 125 607 87 c 0
 546.165 27.1304 461.085 -0.103204 380.576 -0.103204 c 0
 377.711 -0.103204 374.852 -0.0687212 372 0 c 0
 290 2 213 28 143 60 c 0
 125 68 107 77 89 87 c 0
 75 94 64 112 64 128 c 0
 64 153 85 174 110 174 c 0
 117 174 127 171 133 168 c 0
 149 159 165 152 182 144 c 0
 245 115 310 93 374 92 c 0x70
 375.5 91.9762 377.001 91.9643 378.501 91.9643 c 0
 440.035 91.9643 501.976 111.976 542 152 c 0
 567 177 586 210 596 247 c 0
 603.55 274.935 607.11 304.58 607.11 335.075 c 0
 607.11 344.97 606.735 354.955 606 365 c 0
 603 412 592 457 570 493 c 0
 549 528 515 555 479 563 c 0
 468 565.5 455.75 566.5 442.375 566.5 c 0
 429 566.5 414.5 565.5 399 564 c 0
 379.553 562.118 357.746 559.449 334.564 559.449 c 0
 320.792 559.449 306.535 560.391 292 563 c 0
 236 572 185 604 151 650 c 0
 146 657 142 669 142 677 c 0
 142 701 162 722 186 723 c 0
EndSplineSet
Fore
SplineSet
110 174 m 0x46
 123.96 174 125.1 170.643 179.798 145.033 c 1
 183.76 170.401 190.406 192.492 194 212 c 0
 201 250 200 293 203 339 c 0
 206.777 388.857 213.407 434.719 213.407 476.587 c 0
 213.407 552.447 188.68 602.964 138 626 c 0
 122 633 109 651 109 668 c 0
 109 693 130 714 155 714 c 2
 156 714 l 2x56
 157.341 714 158.899 713.856 160.556 713.607 c 1
 167.776 719.134 176.58 722.607 186 723 c 2
 188 723 l 2
 201 723 216.975 714.982 225 704 c 0
 235.946 689.021 268.031 651.072 332.577 651.072 c 0
 367.598 651.072 407.086 658.53 445.319 658.53 c 0
 597.81 658.53 699.47 522.335 699.47 335.169 c 0
 699.47 123.423 559.629 -0.103204 380.576 -0.103204 c 0xae
 348.607 -0.103204 315.566 3.30017 274.071 13.2573 c 1
 265.306 2.23066 251.67 -4.99999 237 -5 c 0
 207.869 -5 195.32 21.3798 188.449 40.6268 c 1
 168.063 48.6397 127.272 65.7376 89 87 c 0
 75 94 64 112 64 128 c 0
 64 153 85 174 110 174 c 0x46
295.415 562.417 m 1
 299.861 545.25 305.271 517.861 305.271 473.379 c 0
 305.271 423.029 297.954 375.833 295 333 c 0
 292 292 293 246 285 197 c 0
 279.075 162.299 270.286 133.329 268.937 110.089 c 1
 321.489 93.9373 356.588 91.9643 378.501 91.9643 c 0
 474.503 91.9643 607.11 140.586 607.11 335.075 c 0
 607.11 449.273 562.304 566.5 442.375 566.5 c 0
 406.654 566.5 372.708 559.449 334.564 559.449 c 0xa6
 321.872 559.449 308.768 560.249 295.415 562.417 c 1
EndSplineSet
EndChar

StartChar: E
Encoding: 69 69 3
Width: 625
VWidth: -1282
Flags: W
HStem: -0.66165 91.5736<214.914 425.24> 340.423 89.851<263.621 409.298> 545 21G<472 490.5> 634.885 91.115<228.575 383.91>
VStem: 71.1674 92.3946<134.371 281.97> 110.366 91.823<488.418 608.739>
LayerCount: 2
Fore
SplineSet
110.366 552.832 m 0xf4
 110.366 656.733 192.901 726 291 726 c 0
 424.2 726 495.596 641.856 513 620 c 0
 519 613 524 600 524 591 c 0
 524 566 503 545 478 545 c 0
 466 545 450 553 442 563 c 0
 395.366 620.891 327.768 634.885 294.571 634.885 c 0
 231.295 634.885 202.189 592.927 202.189 550.641 c 0xf4
 202.189 490.12 267.968 430.274 346.067 430.274 c 0
 381.371 430.274 395.011 441 410 441 c 0
 435 441 456 420 456 395 c 0
 456 376 441 356 423 351 c 0
 397.637 342.794 371.161 338.484 344.818 338.484 c 0
 335.847 338.484 326.891 338.984 318 340 c 1
 310 340 l 2
 306.219 340.28 302.417 340.423 298.61 340.423 c 0
 220.313 340.423 163.562 277.989 163.562 206.744 c 0
 163.562 184.341 166 156 179 142 c 0
 215.58 102.606 273.793 90.9119 326.599 90.9119 c 0
 403.721 90.9119 461.491 131.349 495 168 c 0
 503 177 517 184 529 184 c 0
 554 184 575 163 575 138 c 0
 575 128 570 114 563 107 c 0
 504.717 42.2411 419.277 -0.66165 323.461 -0.66165 c 0
 247.09 -0.66165 173 18 113 77 c 0
 86.7824 102.781 71.1674 148.535 71.1674 206.309 c 0xf8
 71.1674 284.185 110.839 359.033 182 401 c 1
 138.892 440.19 110.366 492.099 110.366 552.832 c 0xf4
EndSplineSet
EndChar

StartChar: F
Encoding: 70 70 4
Width: 659
VWidth: -1282
Flags: W
HStem: -19 21G<158 178.5> 312.094 91.99<275.295 470.072> 556 21G<511.3 540.5> 600.216 91.308<311.435 484.339> 680 20G<75.5 96.7>
VStem: 94.1399 91.2411<42.0921 262.963> 151.683 91.575<395.156 546.007>
LayerCount: 2
Fore
SplineSet
94.1399 144.322 m 0xf4
 94.1399 261.004 151.683 339.81 151.683 439.74 c 0
 151.683 483.723 141.284 526.495 119 561 c 0
 116 565 113 569 110 573 c 1
 85.6967 586.164 43 622.688 43 654 c 0
 43 679 63 699 88 700 c 1
 89 700 l 2xea
 104.4 700 123.45 693.209 166 648 c 0
 167 648 169 647 170 647 c 0
 178 644.333 187.333 643 197.407 643 c 0
 255.996 643 325.237 691.524 410.457 691.524 c 0
 463.897 691.524 514.943 672.67 556 638 c 0
 566 630 573 614 573 602 c 0
 573 577 553 556 528 556 c 0
 494.6 556 479.761 600.216 407.403 600.216 c 0
 354.264 600.216 290.891 561.027 224 553 c 1
 237.167 516.006 243.258 477.046 243.258 438.586 c 0xf2
 243.258 425.612 242.565 412.694 241.216 399.928 c 1
 273 383 l 1
 306.037 396.215 340.856 404.084 376.616 404.084 c 0
 407.997 404.084 442.706 397.294 481 380 c 0
 496 373 507 354 507 338 c 0
 507 313 487 292 462 292 c 0
 439.248 292 420.303 312.094 373.687 312.094 c 0
 319.409 312.094 297.205 288 275 288 c 0
 271 288 265 290 261 291 c 2
 222.81 309.582 l 1
 200.364 229.125 185.381 198.692 185.381 145.749 c 0
 185.381 76.7301 212 52.045 212 27 c 0
 212 2 191 -19 166 -19 c 0
 150 -19 131 -7 124 8 c 0
 104.303 50.8203 94.1399 97.3078 94.1399 144.322 c 0xf4
EndSplineSet
EndChar

StartChar: G
Encoding: 71 71 5
Width: 732
VWidth: -1282
Flags: W
HStem: -252 21G<389.5 419.416> -0.279556 91.4918<304.412 478.031> 260.385 92.382<384.354 504.617> 502 21G<600.5 621.5> 642.128 91.872<297.686 482.447>
VStem: 63.9251 92.1369<249.661 485.48> 521.533 101.116<132.383 244.605> 567 88<508.182 567.3>
LayerCount: 2
Fore
SplineSet
63.9251 367.877 m 0xfe
 63.9251 567.776 207.291 731.772 390 734 c 1
 572.831 734 655 577.85 655 548 c 0
 655 523 634 502 609 502 c 0
 592 502 574 515 567 530 c 0xfd
 542.027 583.513 479.2 642.128 393.411 642.128 c 0
 261.938 642.128 156.062 520.726 156.062 366.23 c 0
 156.062 187.761 292.155 91.2122 394.53 91.2122 c 0
 486.527 91.2122 521.533 151.939 521.533 191.988 c 0
 521.523 193.492 519 200.995 519 207 c 0
 519 208.322 519.059 209.632 519.174 210.929 c 0
 510.178 246.447 480.551 260.385 454.803 260.385 c 0
 436.901 260.385 433.321 254 419 254 c 0
 394 254 373 275 373 300 c 0
 373 337.45 414.388 352.767 457.813 352.767 c 0
 537.097 352.767 608.04 290.177 613.649 201.285 c 1
 619.679 172.776 622.649 143.727 622.649 114.69 c 0
 622.649 -119.901 436.832 -252 402 -252 c 0
 377 -252 356 -231 356 -206 c 0
 356 -192 366 -174 378 -167 c 0
 444.503 -124.776 500.962 -53.6974 521.89 33.6157 c 1
 486.145 11.2939 441.99 -0.279556 396.493 -0.279556 c 0
 232.475 -0.279556 63.9251 145.581 63.9251 367.877 c 0xfe
EndSplineSet
EndChar

StartChar: L
Encoding: 76 76 6
Width: 651
VWidth: -1282
Flags: W
HStem: -3 92<279.246 516.365> 15.1384 91.7466<191.992 434.536> 690 20G<113.5 141.946>
VStem: 134.556 92.298<149.271 609.659>
LayerCount: 2
Fore
SplineSet
69 49 m 0x70
 69 89.284 134.556 116.351 134.556 333.211 c 0
 134.556 382.362 131.924 433.254 131 485 c 0
 128.715 587.846 118.787 606.213 94 631 c 0
 86 638 80 653 80 664 c 0
 80 689 101 710 126 710 c 0
 157.892 710 186.482 667.391 201 634 c 0
 224 582 222 530 223 487 c 0
 223.905 438.608 226.854 388.17 226.854 336.612 c 0
 226.854 195.845 202.084 135.253 191 102 c 1
 218 104 l 2
 238.034 105.582 258.345 106.885 279.081 106.885 c 0x70
 347.562 106.885 396.529 89 437 89 c 0
 510.901 89 528.504 135 562 135 c 0
 587 135 608 114 608 89 c 0
 608 77 600 62 591 54 c 0
 548 17 493 -3 437 -3 c 0xb0
 371.778 -3 350.784 15.1384 272.592 15.1384 c 0
 257.344 15.1384 241.779 14.3923 226 13 c 2
 119 3 l 1
 115 3 l 2
 90 3 69 24 69 49 c 0x70
EndSplineSet
EndChar

StartChar: H
Encoding: 72 72 7
Width: 680
VWidth: -1282
Flags: W
HStem: -15 22G<169.5 191.5 516.5 538.5> 267.316 91.359<377.362 463.758> 378 20G<586.598 601.5> 683 18G<122 157.763 470.5 491>
VStem: 114.984 92.045<26.1724 310.75> 135 90<-8.81762 137.977 146.996 312.114> 154.448 92.344<417.135 577.521> 459.288 91.601<27.8053 267.926> 486.191 92.783<-3.15033 111.748 395.722 604.555>
LayerCount: 2
Fore
SplineSet
486.191 487.117 m 0xf280
 486.191 607.661 439 622.426 439 657 c 0
 439 682 458 702 483 703 c 1
 484 703 l 2
 498 703 515 694 523 683 c 0
 554.793 635.31 578.974 579.274 578.974 488.385 c 0xf280
 578.974 456.269 575.916 424.713 572.141 394.335 c 1
 577.968 396.576 584.196 398 589 398 c 0
 614 398 634 377 634 352 c 0
 634 340 627 324 617 316 c 0
 599.228 301.19 578.999 289.538 557.561 281.253 c 1
 553.64 246.431 550.889 212.248 550.889 178.889 c 0
 550.889 84.0624 572 46.7405 572 32 c 0
 572 7 551 -14 526 -14 c 0
 507 -14 487.066 2.01863 482 20 c 0
 464.466 82.2313 459.288 125.126 459.288 182.029 c 0
 459.288 210.842 461.067 239.269 463.758 267.316 c 1
 377.406 272.873 305.884 319.226 232.567 330.642 c 1
 220.909 263.541 207.029 200.295 207.029 141.297 c 0xf9
 207.029 69.604 225 53.0594 225 31 c 0
 225 6 204 -15 179 -15 c 0
 160 -15 140 0 135 18 c 0xf4
 119.188 67.6949 114.984 96.8996 114.984 144.248 c 0xf8
 114.984 202.902 125.472 259.14 135.441 312.114 c 1
 129.541 307.906 118.041 298 101 298 c 0
 76 298 55 319 55 344 c 0
 55 388.785 134.335 414.34 151.937 418.642 c 1
 153.485 434.315 154.448 449.774 154.448 464.831 c 0xf2
 154.448 560.332 115.942 606.07 101 624 c 0
 94 631 89 645 89 655 c 0
 89 679 110 700 134 701 c 1
 135 701 l 2xf4
 180.527 701 246.792 596.415 246.792 461.551 c 0
 246.792 448.183 246.17 434.928 245.115 421.832 c 1
 333.304 408.071 404.923 360.481 474.822 358.675 c 1
 480.729 402.646 486.191 446.532 486.191 487.117 c 0xf280
EndSplineSet
EndChar

StartChar: O
Encoding: 79 79 8
Width: 735
VWidth: -1282
Flags: W
HStem: -3.70455 91.7499<279.833 459.356> 593.024 90.976<278.78 458.571>
VStem: 59.893 92.073<227.901 454.181> 585.547 92.144<225.479 457.747>
LayerCount: 2
Fore
SplineSet
59.893 343.2 m 0
 59.893 539.367 202.86 684 369 684 c 4
 370 684 370 685 371 685 c 6
 376 685 l 6
 378 685 381 684 383 684 c 6
 384 684 l 5
 549.716 674.69 677.691 527.42 677.691 341.723 c 0
 677.691 135.21 529.931 -3.70455 370.54 -3.70455 c 0
 202.171 -3.70455 59.893 144.309 59.893 343.2 c 0
585.547 341.111 m 0
 585.547 498.911 473.807 593.024 371.085 593.024 c 0
 253.583 593.024 151.966 486.445 151.966 340.442 c 0
 151.966 203.662 247.594 88.0453 372.271 88.0453 c 0
 480.664 88.0453 585.547 189.228 585.547 341.111 c 0
EndSplineSet
EndChar

StartChar: Q
Encoding: 81 81 9
Width: 752
VWidth: -1282
Flags: W
HStem: -162.543 92.0911<605.83 737.896> -2.70455 91.7499<280.021 402.734> 143.038 91.962<262.981 376.322> 594.024 90.976<279.78 459.571>
VStem: 60.893 92.073<225.319 455.181> 586.547 92.144<225.681 458.747>
LayerCount: 2
Fore
SplineSet
197 188 m 1
 232.664 220.098 267.389 233.462 312 235 c 1
 401.343 235 458.676 175.486 489 130 c 1
 547.818 173.133 586.547 251.472 586.547 342.111 c 0
 586.547 499.911 474.807 594.024 372.085 594.024 c 0
 254.583 594.024 152.966 487.445 152.966 341.442 c 0
 152.966 288.551 167.927 232.648 197 188 c 1
60.893 344.2 m 0
 60.893 540.367 203.86 685 370 685 c 0
 371 685 371 686 372 686 c 2
 377 686 l 2
 379 686 382 685 384 685 c 2
 385 685 l 1
 550.716 675.69 678.691 528.42 678.691 342.723 c 0
 678.691 166.489 574.377 75.7762 535 49 c 1
 567.449 -8.94385 600.924 -70.4519 668.244 -70.4519 c 0
 718.315 -70.4519 757.158 -39.6032 779 -6 c 0
 786 6 804 15 818 15 c 0
 843 15 864 -6 864 -31 c 0
 864 -66.5875 779.264 -162.543 667.622 -162.543 c 0
 548.66 -162.543 487.583 -57.6964 453 9 c 1
 421.982 -0.693114 387.832 -2.70455 371.54 -2.70455 c 0
 305.724 -2.70455 254.865 17.2506 207 50 c 1
 202 48 196 47 191 47 c 0
 166 47 145 68 145 93 c 0
 145 96 146 100 147 103 c 1
 88.4379 170.974 60.893 259.157 60.893 344.2 c 0
262 123 m 1
 289.824 104.451 328.763 89.0453 373.271 89.0453 c 0
 379.867 89.0453 386.456 89.3667 393 90 c 0
 397 90 400 90 404 91 c 1
 379.48 120.425 351.723 143.038 316.871 143.038 c 0
 289.626 143.038 269.491 130.491 262 123 c 1
EndSplineSet
EndChar

StartChar: U
Encoding: 85 85 10
Width: 758
VWidth: -1282
Flags: W
HStem: -2.82822 91.3004<296.248 472.64>
VStem: 60.1562 91.9718<253.206 506.612> 609.167 91.398<246.687 483.972>
LayerCount: 2
Fore
SplineSet
386.667 88.4722 m 0
 509.008 88.4722 609.167 214.837 609.167 364.935 c 0
 609.167 471.856 557.415 552.66 509 600 c 4
 501 608 494 623 494 634 c 4
 494 659 514 680 539 680 c 6
 540 680 l 6
 550 680 565 673 572 666 c 4
 636.848 603.388 700.565 501.036 700.565 364.083 c 0
 700.565 163.422 560.589 -2.82822 385.674 -2.82822 c 0
 206.733 -2.82822 60.1562 165.549 60.1562 378.119 c 0
 60.1562 478.191 93.6354 577.794 157 657 c 4
 165 666 181 675 193 675 c 4
 218 675 239 654 239 629 c 4
 239 620 235 607 229 600 c 4
 178.982 538.172 152.128 456.556 152.128 375.941 c 0
 152.128 217.189 257.766 88.4722 386.667 88.4722 c 0
EndSplineSet
EndChar

StartChar: X
Encoding: 88 88 11
Width: 776
VWidth: -1282
Flags: W
HStem: -3 91<582.273 665.818> 592 90<95.93 174.876 585.897 683.514>
LayerCount: 2
Fore
SplineSet
643 684 m 2
 644 684 l 2
 669 684 690 663 690 638 c 0
 690 617 673 597 652 593 c 0
 543.801 572.193 471.232 480.439 414 372 c 1
 459.959 252.507 508.339 125.526 637 88 c 0
 656 83 672 63 672 43 c 0
 672 18 651 -3 626 -3 c 0
 606.153 -3 554.326 18.2576 517 44 c 0
 427.04 106.28 381.898 201.358 356 292 c 1
 346 246 284 121 222 63 c 0
 194.042 37.0389 130 -9 107 -9 c 0
 82 -9 61 12 61 37 c 0
 61 53 72 72 87 79 c 0
 201.173 140.478 241.999 230.434 314 376 c 1
 270.248 482.255 217.338 564.548 124 592 c 0
 105 597 90 617 90 636 c 0
 90 661 110 682 135 682 c 2
 136 682 l 2
 142.516 682 254.179 666.485 345 520 c 0
 352.604 506.693 370.147 462.667 370.147 444.602 c 0
 370.147 443.662 370.099 442.792 370 442 c 1
 374 456 390 511 403 528 c 0
 464.951 609.421 533.846 662.769 635 683 c 0
 637 683 641 684 643 684 c 2
EndSplineSet
EndChar

StartChar: P
Encoding: 80 80 12
Width: 668
VWidth: -1282
Flags: W
HStem: -19 21G<192.5 214.5> 130.977 91.526<279.197 447.958> 513 87<18.1824 89.4668> 568.044 92.087<245.89 406.121> 678 20G<146.5 175.576>
VStem: 134.556 92.347<27.7201 169.713> 162.191 92.235<-8.74301 104.98 305.229 548.94> 527.009 92.496<303.403 468.285>
LayerCount: 2
Fore
SplineSet
280.484 660.131 m 0xdb
 487.244 660.131 619.505 539.28 619.505 385.635 c 0
 619.505 247.981 509.026 130.977 362.551 130.977 c 0
 321.167 130.977 273.061 140.733 226.903 169.713 c 1
 227.506 80.9415 248 41.9847 248 27 c 0
 248 2 227 -19 202 -19 c 0
 183 -19 163.066 -2.98137 158 15 c 0
 140.716 76.3428 134.556 110.356 134.556 173.926 c 0xdd
 134.556 203.693 136.499 233.087 139.385 262.05 c 1
 136.762 268.336 135 276.636 135 282 c 0
 135 292.814 138.742 302.879 145.012 310.82 c 1
 151 356 l 2
 156.881 399.841 162.191 442.539 162.191 482.566 c 0
 162.191 506.035 160.365 528.586 155.759 549.91 c 1
 86.3928 529.542 77.5518 513 58 513 c 0
 33 513 12 534 12 559 c 0
 12 574 23 593 37 600 c 0xeb
 63.0421 613.689 90.3104 625.148 118.358 634.266 c 1
 115.74 640.144 114 646.724 114 652 c 0
 114 677 134 697 159 698 c 1
 160 698 l 2
 191.151 698 206.435 665.135 211.918 655.547 c 1
 234.665 658.585 257.591 660.131 280.484 660.131 c 0xdb
254.426 480.579 m 0xdb
 254.426 421.845 243.689 362.772 234.506 284.471 c 1
 267.172 243.991 315.926 222.503 364.788 222.503 c 0
 447.517 222.503 527.009 289.316 527.009 385.704 c 0
 527.009 495.108 423.933 568.044 283.565 568.044 c 0
 270.986 568.044 258.414 567.538 245.89 566.522 c 1
 252.098 537.708 254.426 508.918 254.426 480.579 c 0xdb
EndSplineSet
EndChar

StartChar: S
Encoding: 83 83 13
Width: 625
VWidth: -1282
Flags: W
HStem: 0.918463 92.0815<211.53 419.882> 496 21G<486.5 504.5> 581.286 91.819<219.635 390.878>
VStem: 67 103<140.103 191.769> 79 91<141.97 200.818> 96.6639 91.1481<450.077 551.388> 458 92.069<127.069 230.571>
LayerCount: 2
Fore
SplineSet
97 513 m 4xe6
 101.869 586.033 166 673.105 295.079 673.105 c 0
 297.723 673.105 300 673 303 673 c 4
 350.226 673 445.566 655.023 525 574 c 4
 532 567 538 552 538 542 c 4
 538 517 517 496 492 496 c 4
 481 496 466 502 459 510 c 4
 421.517 548.554 360.9 581.286 295.5 581.286 c 0
 216.621 581.286 187.812 533.963 187.812 502.414 c 0xe6
 187.812 429.669 299.808 396.651 331 386 c 4
 408.792 360.069 481.359 333.916 525 263 c 4
 540 238 550.069 209.748 550.069 178.528 c 0
 550.069 71.9623 450.302 0.918463 329.617 0.918463 c 0
 327.068 0.918463 325 1 322 1 c 4
 236 2 152 31 85 84 c 4
 75 92 67 109 67 121 c 4xf2
 67 124 68 130 69 133 c 6
 79 172 l 6xea
 84 191 104 207 124 207 c 4
 149 207 170 186 170 161 c 4xf2
 170 152.6 166.593 142.075 166 140 c 5
 213 110 268 94 323 93 c 5
 425.75 93 458 143.4 458 177 c 4
 458 250.2 342.105 285.942 302 299 c 4
 221.579 325.807 154.731 354.071 116 426 c 4
 104 449 96.6639 474.512 96.6639 502.312 c 0
 96.6639 505.837 97 509 97 513 c 4xe6
EndSplineSet
EndChar

StartChar: I
Encoding: 73 73 14
Width: 455
VWidth: -1282
Flags: W
HStem: -4.21429 92.2143<279.863 362.381> 3 113.887<68.3459 155.737> 25.4315 91.4555<85.1108 184.813> 531 91.17<298 345.351> 578.362 91.638<115.46 165.86>
VStem: 185 88.402<115.248 353.48> 211.35 92.06<244.563 531>
LayerCount: 2
Back
SplineSet
185.361 670.481 m 0x18
 191.879 670.607 198.481 670.289 205.021 669.469 c 0
 235.997 665.585 259.717 652.696 278.596 642.722 c 0
 297.29 632.845 311.961 625.594 322.977 623.484 c 0
 331.609 621.831 341.107 622.467 349.471 625.172 c 0
 357.834 627.877 365.887 632.95 371.914 639.347 c 0
 379.445 647.555 394.596 654.215 405.738 654.215 c 0
 431.077 654.215 451.639 633.648 451.639 608.311 c 0
 451.639 598.062 445.858 583.771 438.738 576.403 c 0
 421.954 558.595 401.019 545.293 377.736 537.76 c 0
 354.454 530.227 329.796 528.769 305.765 533.372 c 0
 276.06 539.062 253.694 552.062 235.733 561.553 c 0
 217.956 570.945 203.702 577.07 193.546 578.344 c 0x18
 185.361 579.369 176.243 577.893 168.824 574.294 c 0
 161.398 570.694 154.522 564.396 150.262 557.334 c 0
 142.862 545.084 125.249 535.144 110.938 535.144 c 0x28
 85.583 535.144 65 555.724 65 581.081 c 0
 65 588.146 67.9697 598.789 71.624 604.838 c 0
 85.2451 627.396 105.031 645.4 128.746 656.896 c 0
 146.527 665.519 165.797 670.102 185.361 670.481 c 0x18
178.273 116.56 m 0x48
 188.314 117.385 198.508 117.361 208.648 116.475 c 0
 236.925 114.007 260.424 105.646 280.283 99.1777 c 0
 300.059 92.7393 316.67 88.0986 329.98 87.4502 c 0
 348.174 86.5645 367.863 92.9004 382.124 104.24 c 0
 389.048 109.741 401.841 114.207 410.685 114.207 c 0
 436.023 114.207 456.596 93.6387 456.596 68.2969 c 0
 456.596 56.0654 448.822 39.9629 439.246 32.3535 c 0
 407.025 6.72461 366.631 -6.2666 325.508 -4.26562 c 0x88
 296.572 -2.85742 272.283 5.2793 251.849 11.9346 c 0
 231.493 18.5635 214.486 23.8027 200.633 25.0127 c 0
 181.364 26.6943 160.545 21.3848 144.439 10.6689 c 0
 138.059 6.42383 126.663 2.97754 119 2.97754 c 0
 93.6562 2.97754 73.085 23.5469 73.085 48.8906 c 0
 73.085 62.4668 82.2607 79.5898 93.5615 87.1123 c 0
 118.984 104.029 148.152 114.081 178.273 116.56 c 0x48
234.89 651.497 m 0
 235.274 651.508 235.896 651.518 236.281 651.518 c 0x28
 246.538 651.518 260.846 645.725 268.218 638.588 c 2
 313.695 595.81 l 2
 319.812 590.059 325.978 578.682 327.449 570.412 c 0
 337.605 513.662 340.501 455.684 336.055 398.203 c 0
 330.322 324.116 313.722 256.374 309.309 192.497 c 0
 307.848 171.382 307.905 151.29 310.488 132.675 c 0
 313.016 114.469 318.711 94.8516 325.762 73.6973 c 2
 328.461 65.6816 l 2
 329.947 61.5312 331.161 54.5811 331.161 50.1719 c 0
 331.161 24.833 310.595 4.2666 285.256 4.2666 c 0
 266.546 4.2666 246.892 18.7764 241.387 36.6562 c 2
 238.687 44.6719 l 2
 231.093 67.4531 223.372 92.3516 219.533 120.019 c 0
 215.747 147.274 215.942 173.739 217.677 198.825 c 0
 222.813 273.207 239.546 341.202 244.508 405.291 c 0
 247.973 450.104 246.006 495.348 239.192 539.784 c 1
 205.273 571.763 l 2
 197.047 579.296 190.376 594.459 190.376 605.612 c 0
 190.376 630.197 210.315 650.753 234.89 651.497 c 0
EndSplineSet
Fore
SplineSet
38 49 m 0x44
 38 85.6759 94.3106 116.887 156.086 116.887 c 0
 162.022 116.887 168.008 116.599 174 116 c 0
 178 116 181 116 185 115 c 1
 185 120 l 1x44
 182.657 135.816 181.686 151.632 181.686 167.047 c 0
 181.686 261.089 211.35 348.164 211.35 445.689 c 0
 211.35 477.42 208.9 509.2 204 540 c 1
 170 572 l 2
 168 573 167 575 166 577 c 1
 163 578 161 578 159 578 c 0
 157.028 578.247 155.113 578.362 153.257 578.362 c 0
 132.118 578.362 118.655 563.396 115 557 c 0
 108 545 90 535 76 535 c 0
 51 535 30 556 30 581 c 0
 30 611.619 78.9504 670 150 670 c 0x4a
 224.027 670 260.648 622.17 298.542 622.17 c 0
 303.641 622.17 308.762 623.036 314 625 c 0
 336.823 633.559 347.108 654 371 654 c 0
 396 654 417 633 417 608 c 0
 417 572.12 359.947 531 298 531 c 1
 301.397 501.104 303.41 470.747 303.41 440.555 c 0x12
 303.41 338.964 273.402 250.919 273.402 169.646 c 0
 273.402 137.949 279.933 107.413 286 88 c 1
 289 88 292 88 295 88 c 0
 296.299 87.9278 297.609 87.8921 298.926 87.8921 c 0
 341.317 87.8921 346.134 114 376 114 c 0
 401 114 422 93 422 68 c 0
 422 29.4461 359.888 -4.21429 299.768 -4.21429 c 0x94
 235.798 -4.21429 200.259 25.4315 157.612 25.4315 c 0x24
 117.125 25.4315 107.924 3 84 3 c 0
 59 3 38 24 38 49 c 0x44
EndSplineSet
EndChar

StartChar: J
Encoding: 74 74 15
Width: 386
VWidth: -1282
Flags: W
HStem: -227.481 91.18<-36.5601 105.51> 664 20G<222.5 246.5>
VStem: 212 92<-11.2058 221.243 226.211 644.07>
LayerCount: 2
Fore
SplineSet
212 429 m 0
 212 551.8 191 626.819 191 638 c 0
 191 663 210 683 235 684 c 1
 236 684 l 2
 257 684 277 667 281 647 c 0
 296 575 304 502 304 429 c 0
 304 357 296 288 296 223 c 0
 296 188.5 297.688 152.312 297.688 114.438 c 0
 297.691 108.735 l 0
 297.691 52.0596 295.183 -111.505 151 -193 c 0
 109.91 -216.225 64.0322 -227.481 17.6435 -227.481 c 0
 12.1005 -227.481 6.55027 -227.32 1 -227 c 0
 -23 -226 -43 -205 -43 -181 c 0
 -43 -156 -22 -135 3 -135 c 0
 4 -135 5 -136 6 -136 c 0
 9.41717 -136.201 12.8545 -136.301 16.304 -136.301 c 0
 79.795 -136.301 196.73 -100.95 205 81 c 0
 205.5 92 205.688 103.25 205.688 114.719 c 0
 205.688 149.125 204 185.5 204 223 c 0
 204 295 212 363 212 429 c 0
EndSplineSet
EndChar

StartChar: M
Encoding: 77 77 16
Width: 739
VWidth: -1282
Flags: W
HStem: -23 29G<128.5 146.5 596.5 618> 324.421 91.391<310.774 415.132>
VStem: 70 110<-0.67276 54.6661> 126.141 90.859<178.069 408>
LayerCount: 2
Fore
SplineSet
70 41 m 4xe0
 70 57.7276 126.141 204.162 126.141 429.876 c 0
 126.141 481.25 122.957 532.625 117 584 c 5
 100 611 l 6
 96 617 92 629 92 636 c 4
 92 661 113 682 138 682 c 6
 140 682 l 6
 154 682 171 672 178 660 c 6
 197 629 l 5
 213.46 615.832 215.189 563.873 283 472 c 4
 293.397 458.137 324.157 415.812 361.215 415.812 c 0
 414.027 415.812 486.898 502.155 521 584 c 4
 523 590 530 599 535 603 c 5
 556.442 650.648 577.6 678 606 678 c 4
 631 678 653 658 653 633 c 4
 653 597.26 601.369 584.199 601.369 474.156 c 0
 601.369 380.644 640.94 298.243 664 59 c 4
 664 58 665 56 665 55 c 4
 665 50 663 43 661 38 c 6
 652 15 l 6
 646 -1 627 -15 609 -15 c 4
 584 -15 563 6 563 31 c 4
 563 36 565 44 567 49 c 6
 572 61 l 5
 552.171 249.376 525.439 326.927 514 407 c 5
 490.346 378.615 432.93 324.421 362.437 324.421 c 0
 330.932 324.421 273.397 334.25 217 408 c 5
 217 373 l 5xd0
 213 266 195 159 167 55 c 5
 174 48 180 33 180 23 c 4
 180 -2 159 -23 134 -23 c 4
 123 -23 109 -17 102 -9 c 6
 83 9 l 6
 76 16 70 31 70 41 c 4xe0
EndSplineSet
EndChar

StartChar: N
Encoding: 78 78 17
Width: 615
VWidth: -1282
Flags: W
HStem: -24 36G<105.5 130.5 479 501.5> 667 20G<515 533.5>
VStem: 72 92<-17.8176 294.125> 439.5 92<-0.400238 93.2429 223.427 585>
LayerCount: 2
Fore
SplineSet
432 221 m 1
 435.502 272.363 439.5 349.759 439.5 478.5 c 0
 439.5 520 439 561.5 438 603 c 1
 438 604 l 2
 438 614 445 629 452 636 c 2
 488 673 l 2
 495 680 510 687 520 687 c 2
 521 687 l 2
 546 687 567 666 567 641 c 0
 567 630 561 615 553 608 c 2
 530 585 l 1
 531 546 531.5 507 531.5 468 c 0
 531.5 325.2 525.335 217.689 516 111 c 0
 516 108 516 106 515 103 c 1
 526.118 77.9856 535 43.3566 535 37 c 0
 535 12 514 -9 489 -9 c 0
 469 -9 449 6 444 26 c 0
 409.694 156.365 310.263 176.301 194 359 c 1
 178 247 168 135 164 22 c 0
 164 -3 143 -24 118 -24 c 0
 93 -24 72 -3 72 22 c 0
 72 23 73 24 73 25 c 0
 81.3719 274.063 115.128 419.414 115.128 482.353 c 0
 115.128 485.265 115.086 488.147 115 491 c 0
 115 506 113 521 109 535 c 2
 103 555 l 1
 88.1851 594.506 49 600.193 49 636 c 0
 49 660 68 681 92 682 c 0
 93 682 94 682 95 682 c 0
 135.28 682 172.992 618.011 173 618 c 0
 179 612 183 606 185 599 c 2
 189 588 l 2
 193.242 578.456 228.217 437.907 358 297 c 1
 432 221 l 1
EndSplineSet
EndChar

StartChar: R
Encoding: 82 82 18
Width: 643
VWidth: -1282
Flags: W
HStem: -12 92<520.329 571.818> 219.974 91.537<255.645 385.286> 518 88<20.1824 102.869> 569.123 91.997<239 410.947> 679 20G<140 170.2>
VStem: 145.75 92.637<47.862 241 336.421 488.85 493.57 548> 153.361 91.977<356.627 547.31> 426 92<81.3585 211.998> 486.152 91.271<371.008 505.311>
LayerCount: 2
Fore
SplineSet
208 654 m 1xea
 242.624 659.54 278.11 661.12 295.638 661.12 c 0
 497.255 661.12 577.423 543.541 577.423 441.857 c 0xda80
 577.423 370.314 542.295 306.133 481 263 c 1
 481 262 l 1
 506.054 230.683 519.333 196.979 519.333 151 c 0
 519.333 135 518 121.667 518 111 c 0
 518 103.27 520.122 80 532 80 c 0
 557 80 578 59 578 34 c 0
 578 9 557 -12 532 -12 c 0
 468.4 -12 426 41.1617 426 109 c 0
 426 127.75 427.688 143.125 427.688 155.125 c 0
 427.688 171.398 422.657 203.635 386 224 c 1
 370.767 221.334 355.243 219.974 339.706 219.974 c 0
 299.024 219.974 265.841 228.626 238 241 c 1
 238.217 229.492 238.387 217.937 238.387 206.315 c 0
 238.387 108.961 221.149 46.3468 206 11 c 1
 200 -6 180 -19 162 -19 c 0
 137 -19 117 2 117 27 c 0
 117 51.0754 145.75 73.7432 145.75 200.375 c 0xdd
 145.75 236.75 144 275 144 315 c 1
 141 322 138 330 138 336 c 0
 138 345 141 353 145 360 c 1
 147.347 408.107 153.361 447.516 153.361 492.679 c 0
 153.361 511.692 152.056 530.43 149 548 c 1
 94.0189 531.964 77.8 518 60 518 c 0
 35 518 14 539 14 564 c 0
 14 581 26 599 42 606 c 0
 65 616 89 626 113 633 c 1
 110 639 108 647 108 653 c 0
 108 677 128 698 152 699 c 1
 154 699 l 2
 186.4 699 204.511 660.281 208 654 c 1xea
340.767 311.511 m 0
 366.707 311.511 375.353 317 384 317 c 1
 448.052 334.792 486.152 390.506 486.152 439.51 c 0
 486.152 491.355 444.83 569.123 296.248 569.123 c 0
 292.847 569.123 289.43 569.082 286 569 c 0
 270 569 255 567 239 565 c 1
 243.708 539.888 245.338 515.392 245.338 491.512 c 0
 245.338 434.507 237.126 391.778 236 349 c 1
 259.282 328.628 298.86 311.511 340.767 311.511 c 0
EndSplineSet
EndChar

StartChar: K
Encoding: 75 75 19
Width: 697
VWidth: -1282
Flags: W
HStem: -10 92<524.436 626.818> 638 87<514.002 576.366>
VStem: 82.8501 92.1499<49.5 208.683 509.981 716.709> 102.5 86.926<364.34 679.905>
LayerCount: 2
Fore
SplineSet
82.8501 161.387 m 0xe0
 82.8501 275.576 102.5 373.452 102.5 487.641 c 0
 102.5 549.375 98 611.25 89 672 c 0
 89 674 88 678 88 680 c 0
 88 705 109 726 134 726 c 2
 136 726 l 1
 157 725 177 707 180 686 c 0
 187.098 638.499 189.426 571.921 189.426 506.934 c 0xd0
 189.426 452.893 187.816 399.953 186 360 c 1
 203 388 222 468 250 504 c 0
 321 594 412 668 514 720 c 0
 519 723 529 725 535 725 c 2
 536 725 l 2
 561 725 582 705 582 680 c 0
 582 664 570 645 556 638 c 0
 470 594 394 533 332 459 c 1
 353.425 440.636 345.952 410.748 419 249 c 0
 445.033 190.425 490.655 88.5563 589 82 c 0
 613 81 633 60 633 36 c 0
 633 11 612 -10 587 -10 c 2
 585 -10 l 1
 429.944 -3.79776 358.288 158.945 335 211 c 0
 311 264 290 318 271 373 c 1
 189.884 239.738 189.982 151.728 175 133 c 1
 176 113 177 93 180 74 c 2
 186 39 l 2
 187 36 187 32 187 29 c 0
 187 4 166 -17 141 -17 c 0
 95.2927 -17 93.5246 31.3281 89 63 c 0
 84.562 96.1543 82.8501 128.968 82.8501 161.387 c 0xe0
EndSplineSet
EndChar

StartChar: Y
Encoding: 89 89 20
Width: 640
VWidth: -1282
Flags: W
HStem: -23 21G<132.5 148.5> 604 87<24.1244 85.8375> 692 20G<571.523 599.5>
LayerCount: 2
Fore
SplineSet
62 691 m 1
 64 691 l 2
 91.0416 691 200.398 627.383 275 537 c 0
 301 506 318 441 330 402 c 1
 336 420 354 470 362 488 c 0
 427.021 635.486 557.046 712 586 712 c 2
 587 712 l 2
 612 712 633 691 633 666 c 0
 633 651 622 632 608 625 c 0
 537 588 478 525 446 451 c 0
 395.84 336.348 401.803 151.013 205 6 c 0
 204 5 203 5 202 4 c 2
 169 -16 l 2
 163 -20 152 -23 145 -23 c 0
 120 -23 99 -2 99 23 c 0
 99 38 109 56 122 63 c 2
 152 81 l 1
 189.2 108.28 267.245 180.593 279 257 c 0
 281 268 282 280 282 292 c 0
 282 366.4 244.141 428.939 204 478 c 1
 160 530 105 574 44 604 c 0
 29 611 18 629 18 645 c 0
 18 669 38 690 62 691 c 1
EndSplineSet
EndChar

StartChar: W
Encoding: 87 87 21
Width: 717
VWidth: -1282
Flags: W
HStem: -31 21G<166.5 189.5 437.5 460.5> 578 20G<346 365.5> 616 92<683.938 781.818>
VStem: 133 91<-24.8176 53> 301 98<534.188 587.772> 404 91<0.182384 95.0149>
LayerCount: 2
Fore
SplineSet
366 416 m 1
 319.776 268.083 240.121 145.841 235 142 c 1
 235 109 233 78 231 45 c 0
 231 43 230 41 230 39 c 2
 224 6 l 2
 220 -15 200 -31 179 -31 c 0
 154 -31 133 -10 133 15 c 0
 133 18 133 21 134 24 c 2
 140 53 l 1
 142.08 83.8552 143.079 114.71 143.079 145.566 c 0
 143.079 321.927 112.291 476.489 70 609 c 1
 31 626 l 2
 16 633 3 652 3 669 c 0
 3 694 24 714 49 714 c 2
 50 714 l 2
 55 714 63 712 68 710 c 2
 126 684 l 2
 136 679 147 668 151 657 c 0
 204.727 498.804 224.162 344.388 224.162 327.245 c 0
 224.162 315.005 221.838 279.992 221.838 267.754 c 0
 221.838 265.974 221.887 264.676 222 264 c 1
 229 279 250 341 256 356 c 0
 280 413 290 473 303 534 c 1
 302 538 301 542 301 546 c 0
 301 562 309 576 321 584 c 1
 329 593 340 598 352 598 c 2
 353 598 l 2
 378 598 399 578 399 553 c 2
 399 549 l 1
 445 477 473 354 490 270 c 1
 528.439 404.537 511.317 586.098 638 674 c 0
 668 695 703 706 739 708 c 0
 740 708 741 708 742 708 c 0
 767 708 788 687 788 662 c 0
 788 637 768 616 743 616 c 1
 633.404 610.232 620.674 463.851 605 382 c 1
 584 290 542 196 511 104 c 0
 510 101 507 99 505 96 c 1
 503 75 499 53 495 32 c 0
 491 11 471 -6 450 -6 c 0
 425 -6 404 15 404 40 c 0
 404 53.05 417 92.2 417 170.5 c 0
 417 264.705 395.913 345.616 366 416 c 1
EndSplineSet
EndChar

StartChar: V
Encoding: 86 86 22
Width: 683
VWidth: -1282
Flags: W
HStem: -34 21G<222.5 246.5> 692 1G<14.5 39.7018 517.5 539.5>
VStem: 189 91<-27.8176 70 70.2358 201.778> 485 111<629.297 688.388>
LayerCount: 2
Fore
SplineSet
530 712 m 1
 531 712 l 2
 548 712 568 700 574 684 c 2
 593 639 l 2
 595 634 596 626 596 621 c 0
 596 611 591 597 585 590 c 2
 425 398 l 1
 356.826 312.101 285.33 214.604 279 88 c 0
 279 82 277 75 274 70 c 1
 280 18 l 2
 280 16 280 14 280 12 c 0
 280 -13 259 -34 234 -34 c 0
 211 -34 191 -15 189 8 c 0
 161.761 244.074 182.595 376.929 117 495 c 0
 91 541 51 580 5 606 c 0
 -8 613 -19 632 -19 647 c 0
 -19 672 2 693 27 693 c 2
 28 693 l 2
 51.4035 693 145.121 633.078 197 540 c 0
 230 481 247 416 255 353 c 0
 256 342 257 331 258 320 c 1
 286 369 320 413 353 455 c 1
 498 629 l 1
 489 648 l 2
 487 653 485 661 485 666 c 0
 485 691 505 711 530 712 c 1
EndSplineSet
EndChar

StartChar: Z
Encoding: 90 90 23
Width: 828
VWidth: -1282
Flags: W
HStem: -7.84513 91.8249<478.528 675.275> 14 87<83.1824 137.774> 40.5366 91.4634<311 462.068> 508.876 92.124<150.935 211.548> 538 92.169<378.614 487> 629.041 92.2<151.138 267.516> 673 20G<692 708.5>
LayerCount: 2
Fore
SplineSet
58.3617 606.763 m 0x14
 58.3617 670.612 116.754 721.241 190.905 721.241 c 0x14
 193.959 721.241 196.992 721.158 200 721 c 0
 299.549 721 354.517 630.169 487.474 630.169 c 0
 567.003 630.169 635.936 662.958 669 685 c 0
 676 690 688 693 696 693 c 0
 721 693 742 672 742 647 c 0
 742 601.74 660.666 580.766 631 560 c 0
 518.619 481.674 520.218 315.468 311 132 c 1x2a
 462.95 128.767 522.019 83.9798 599.401 83.9798 c 0
 672.302 83.9798 684.19 130 721 130 c 0
 746 130 767 109 767 84 c 0
 767 43.6322 683.855 -7.84513 598.073 -7.84513 c 0x80
 497.685 -7.84513 443.876 40.5366 304.365 40.5366 c 0x20
 195.546 40.5366 141.137 14 123 14 c 0
 98 14 77 35 77 60 c 0
 77 76 88 94 102 101 c 0
 365.687 235.005 427.945 453.636 487 538 c 1x48
 324.925 538 273.356 629.041 192.318 629.041 c 0
 160.585 629.041 150 612.698 150 610 c 2
 150 607 l 1
 151.44 605.08 152.4 601 162 601 c 0
 172.745 601 177.627 611 196 611 c 0
 221 611 242 590 242 565 c 0
 242 528.195 200.238 508.876 162.556 508.876 c 0
 104.409 508.876 58.3617 552.149 58.3617 606.763 c 0x14
EndSplineSet
EndChar

StartChar: T
Encoding: 84 84 24
Width: 627
VWidth: -1282
Flags: W
HStem: -14 21G<321 341.5> 484.876 92.124<49.9355 110.548> 510.064 91.835<354.266 474.919> 606 91.52<49.6411 167.033> 660.201 91.32<435.123 498.472>
VStem: 268.558 92.159<23.5755 236.954> 295.996 92.385<137.85 451.323>
LayerCount: 2
Fore
SplineSet
487.917 751.521 m 0xaa
 544.847 751.521 592.41 714.622 592.41 659.274 c 0
 592.41 572.865 461.73 510.064 373.828 510.064 c 0
 366.533 510.064 359.267 510.394 352 511 c 1
 352.005 510.983 388.381 369.934 388.381 294.577 c 0xaa
 388.381 205.059 360.717 140.408 360.717 95.6489 c 0
 360.717 61.3666 375 55.5751 375 32 c 0
 375 7 354 -14 329 -14 c 0
 313 -14 294 -2 287 13 c 0
 276.763 35.5211 268.558 62.3748 268.558 95.2914 c 0xac
 268.558 165.296 295.996 202.526 295.996 295.646 c 0
 295.996 364.753 263.561 499.732 249 524 c 0
 234.282 548.529 221.717 546.378 213 558 c 1
 194.574 567.981 133.382 606 92.8519 606 c 0
 60.9204 606 49 589.2 49 585 c 2
 49 583 l 1
 50.44 581.08 51.4 577 61 577 c 0
 71.7453 577 76.6268 587 95 587 c 0
 120 587 141 566 141 541 c 0
 141 504.195 99.2385 484.876 61.5563 484.876 c 0
 3.40901 484.876 -42.6383 528.149 -42.6383 582.763 c 0
 -42.6383 651.617 20.7431 697.52 92.5052 697.52 c 0xd2
 208.106 697.52 272.966 601.899 374.889 601.899 c 0
 382.618 601.899 447.231 609.01 474 624 c 0
 487.698 631.828 493.578 651.578 500 658 c 1
 498 659 496 660 492 660 c 0
 490.637 660.136 489.327 660.201 488.065 660.201 c 0
 465.723 660.201 458.215 640 434 640 c 0
 409 640 388 661 388 686 c 0
 388 721.341 436.592 751.521 487.917 751.521 c 0xaa
EndSplineSet
EndChar

StartChar: A
Encoding: 65 65 25
Width: 832
VWidth: -1282
Flags: W
HStem: -12 91.7515<195.824 278.057 684.307 728.734> 188 180<132.531 216.456> 196 92<419.458 526.274> 459 120<162.043 222.766> 522 21G<311.264 349.5> 609 92<157.133 246.19 438.078 459.839>
VStem: 60 91.548<551.489 602.042> 86 152<208.865 272.621> 729 92<81.0007 128.818>
LayerCount: 2
Fore
SplineSet
60 570 m 0x9680
 60 636.15 116.266 701 196 701 c 0
 279.833 701 332.447 627.553 341 619 c 0
 343 617 345 616 346 615 c 1
 359.07 628.07 383.89 696 451 696 c 0
 506.918 696 535.349 653.953 540 640 c 1
 555.018 628.737 613.06 516.106 627 386 c 0
 638.214 287.88 625.45 154.171 690 95 c 0
 705.113 81.5658 712.229 79.7515 717.537 79.7515 c 0
 719.501 79.7515 721.217 80 723 80 c 0
 725 80 726 81 727 81 c 0
 728 81 729 82 729 83 c 0
 729 85 729 87 729 89 c 0
 729 114 750 135 775 135 c 0
 799 135 820 116 821 92 c 1
 821 87 l 2
 821 43.1789 790.1 -12 719 -12 c 0
 652.6 -12 577.7 51.0283 553 177 c 0
 551 190 550 202 548 215 c 1
 526 204 501 197 476 196 c 0
 474 196 472 196 470 196 c 0xb680
 448 196 428 201 410 206 c 1
 410 205 409 203 409 202 c 0
 399.701 127.611 379.476 61.0541 322 20 c 0
 301 4 274 -7 246 -9 c 1
 236 -9 l 2
 160.363 -9 105 50.3105 105 89 c 0
 105 114 125 135 150 135 c 0
 166 135 185 123 192 109 c 0
 200.208 92.584 216.326 82.7813 234.352 82.7813 c 0
 254.273 82.7813 276.522 94.7527 293 123 c 0
 317.257 164.583 319.826 233.083 321 246 c 1
 255.977 277.098 243.789 273.535 235 275 c 1
 236 271 238 265 238 261 c 0
 238 259 237 257 237 255 c 0
 230.937 209.528 193.311 188 161 188 c 0
 131.033 188 86 210.363 86 267 c 0
 86 327.6 146.544 368 220 368 c 0
 264.8 368 311.365 351.171 332 342 c 1
 360.7 510.1 461 519.604 461 588 c 0
 461 600.132 454.45 604.188 452.812 604.188 c 0
 451.612 604.188 449.25 603.469 447 600 c 2
 434 580 l 2
 418.967 557.451 395.803 528.019 359 523 c 0
 355 523 351 522 348 522 c 0xcd80
 274.529 522 255.037 601.138 207 608 c 0
 205 608 202 609 200 609 c 0
 167.866 609 151.548 584.831 151.548 567.26 c 0
 151.548 559.974 154.353 553.823 160 551 c 1
 166 567 186 579 203 579 c 0
 228 579 249 558 249 533 c 0
 249 517.1 227.7 459 161 459 c 2
 154 459 l 1
 99.6591 462.623 60 513.981 60 570 c 0x9680
473 288 m 0
 486.2 288 521 294 539 330 c 1
 535.659 380.113 534.333 415.121 513 483 c 1
 478.584 434.818 438.351 424.108 421 320 c 0
 420 314 420 307 419 301 c 0
 419.207 300.931 440.89 288 473 288 c 0
EndSplineSet
EndChar

StartChar: B
Encoding: 66 66 26
Width: 614
VWidth: -1282
Flags: W
HStem: -1.44323 86.1697<233.391 413.825> 347 86<259 351.464> 643.16 77.84<222.637 333.033> 728 20G<80.5 104.16>
VStem: 168.278 92.036<321.74 586.484> 386.6 86.608<467.61 594.773> 467.44 86.298<134.696 286.431>
LayerCount: 2
Fore
SplineSet
93 748 m 0xfa
 115.319 748 140.244 727.737 159 713 c 1
 165 716 172 718 180 718 c 0
 189 718 202 714 209 708 c 1
 231 717 255 721 279 721 c 0
 388.707 721 473.208 634.413 473.208 529.417 c 0xfc
 473.208 502.384 466.969 475.737 455 451 c 0
 448 437 420 420 405 411 c 1
 422 402 463 393 478 380 c 0
 515.332 346.816 553.738 287.987 553.738 210.479 c 0
 553.738 88.5881 460.304 -1.44323 336.299 -1.44323 c 0
 315.239 -1.44323 281.349 0.81625 231 17 c 1
 223 4 208 -5 192 -5 c 0
 159 -5 144.703 27.1883 137 58 c 1
 100.896 78.6307 77 92.5159 77 119 c 0
 77 143 97 162 121 162 c 0
 126 162 131 161 137 159 c 1
 161.727 282.635 147.402 176.495 158 339 c 0
 161.073 389.705 168.278 436.279 168.278 478.721 c 0
 168.278 588.688 112.268 639.24 72 662 c 0
 58 669 47 688 47 703 c 0
 47 728 68 748 93 748 c 0xfa
467.44 206.557 m 0xfa
 467.44 288.215 405.879 344.312 339 351 c 0
 337 351 334 352 332 353 c 1
 318 350 304 347 290 347 c 0
 277 347 264 348 251 351 c 1
 250 345 250 339 250 333 c 0
 247 292 247 246 239 197 c 0
 233 163 226 135 224 112 c 1
 275.18 89.4204 312.481 84.7265 334.601 84.7265 c 0
 416.052 84.7265 467.44 139.408 467.44 206.557 c 0xfa
222 639 m 1
 243.87 595.259 260.314 540.331 260.314 474.551 c 0
 260.314 462.196 259.828 450.012 259 438 c 1
 269 435 279 433 289 433 c 0
 345.306 433 386.6 479.351 386.6 530.112 c 0xfc
 386.6 601.983 313.464 641 279 641 c 0
 268.8 641 255.72 643.16 243.648 643.16 c 0
 235.6 643.16 228 642.2 222 639 c 1
EndSplineSet
EndChar

StartChar: p
Encoding: 112 112 27
Width: 383
VWidth: -1282
Flags: W
HStem: -255 21G<59 78.5> -3.25 86.6944<142 238.702> 239 86.255<203.963 260.612> 361 20G<50 81.3766>
VStem: 58.1986 86.1934<-187.273 -3.56867> 265.75 85.907<109.986 237.383>
LayerCount: 2
Fore
SplineSet
60.565 199.198 m 0
 60.565 299.829 19 306.77 19 338 c 4
 19 362 38 381 62 381 c 6
 63 381 l 6
 99.7532 381 129.565 320.177 139 273 c 5
 157.61 297.813 193.412 325.255 242.853 325.255 c 0
 286.375 325.255 351.657 300.957 351.657 175.289 c 0
 351.657 133.776 349.517 35.0278 215 3 c 4
 195 -1.16667 175 -3.25 154.421 -3.25 c 0
 150.306 -3.25 146.167 -3.16667 142 -3 c 5
 143.464 -22.7654 144.392 -44.1384 144.392 -66.3346 c 0
 144.392 -115.553 138.409 -171.07 111 -230 c 4
 105 -244 86 -255 71 -255 c 4
 47 -255 28 -236 28 -212 c 4
 28 -189.715 58.1986 -155.347 58.1986 -74.5286 c 0
 58.1986 -47.9047 55.7267 -18.943 54 13 c 5
 47.52 21.64 42 41.8 42 49 c 4
 42 67.3097 50.1518 68.9109 54 92 c 5
 56.8576 134.864 60.565 167.059 60.565 199.198 c 0
265.75 169.875 m 0
 265.75 200.138 261.2 239 243 239 c 4
 214.893 239 198.785 209.178 188 193 c 4
 167 159 151 123 141 84 c 5
 147 83.6667 153.111 83.4444 159.259 83.4444 c 0
 227.164 83.4444 261.69 115.589 265 152 c 4
 265.5 157.5 265.75 163.5 265.75 169.875 c 0
EndSplineSet
EndChar

StartChar: n
Encoding: 110 110 28
Width: 355
VWidth: -1282
Flags: W
HStem: -5 21G<74 97 266.849 285> 242.215 86.785<147.53 208.99>
VStem: 19 85<298.047 326.889> 42 86<-1.86084 213.331> 213 87<39.4709 241.847> 218 98<9.24039 68.6675>
LayerCount: 2
Fore
SplineSet
40 113 m 1xd8
 40 145.2 38 131.4 38 159 c 0
 37 188 36 226 33 252 c 1
 30 256 23 263 20 282 c 0
 20 284 19 287 19 289 c 0
 19 312 38 331 61 332 c 1
 63 332 l 2
 88.35 332 104 305.95 104 302 c 2
 104 302 103 302 104 301 c 0
 104 300 105 299 106 298 c 1
 128.776 313.184 153.457 329 187 329 c 0
 263.987 329 300 250.235 300 217 c 2
 300 206 l 1xe8
 301 193 301 168 301 152 c 0
 301 121 302 86 304 69 c 1
 311 62 316 49 316 39 c 0
 316 15 297 -5 273 -5 c 0
 260.699 -5 225.135 7.83629 218 56 c 0xc4
 214 84 214 119 214 151 c 0
 214 167 213 191 213 202 c 0
 213 209 211 216 211 217 c 0
 204.549 229.903 201.08 242.215 189.313 242.215 c 0
 185.527 242.215 180.881 240.94 175 238 c 0
 166 233 145 217 143 214 c 0
 134 200 126 169 125 154 c 1
 125 138 126 124 126 109 c 0
 127 85 128 61 128 40 c 2
 128 36 l 2
 128 12 109 -7 85 -7 c 0
 63 -7 43 12 42 34 c 1
 42 35 l 1
 41 61 41 87 40 113 c 1xd8
EndSplineSet
EndChar

StartChar: m
Encoding: 109 109 29
Width: 493
VWidth: -1282
Flags: W
HStem: -5 21G<69 92.5 233 256.5 391.855 424> 238.247 86.657<144.895 197.557 300.584 360.204>
VStem: 40 86<0.642365 196.859> 204 87.598<1.71179 186.198> 364 86<37.3534 241.236>
LayerCount: 2
Fore
SplineSet
202 191 m 1
 197.223 219.663 193.382 238.247 180.658 238.247 c 0
 176.501 238.247 171.396 236.264 165 232 c 1
 148 222 133 201 125 182 c 1
 125 168 126 154 126 140 c 0
 126 113 126 85 125 57 c 0
 125 50 124 43 124 36 c 0
 123 13 104 -5 81 -5 c 0
 57 -5 38 14 38 38 c 2
 38 42 l 2
 38 49 39 54 39 61 c 0
 40 87 40 113 40 139 c 0
 40 151 39 164 39 176 c 1
 38 179 37 184 37 187 c 0
 37 190 38 194 39 197 c 1
 38 214 37 236 36 253 c 1
 27.8787 261.121 19 271.455 19 288 c 0
 19 311 38 330 61 331 c 1
 62 331 l 2
 72 331 85 326 92 319 c 2
 108 304 l 1
 112 300 l 1
 115 302 118 304 121 306 c 0
 136.441 315.826 156.295 324.904 182.214 324.904 c 0
 210.528 324.904 233.836 314.08 253 293 c 1
 271.002 311.002 302.2 330 335 330 c 0
 381 330 450 296.766 450 180 c 0
 450 156 448 136 448 118 c 0
 447.823 114.635 447.74 111.301 447.74 107.987 c 0
 447.74 79.5922 456 44.0987 456 37 c 0
 456 13 436 -7 412 -7 c 0
 371.711 -7 361.639 41.2793 361.639 103.862 c 0
 361.639 126.703 364 149.545 364 180 c 0
 364 232.938 345.025 243 335 243 c 0
 326.2 243 324.561 240.249 313 231 c 1
 302 220 293 202 289 187 c 1
 290.902 169.883 291.598 153.167 291.598 136.854 c 0
 291.598 127.435 291.366 118.151 291 109 c 2
 288 36 l 2
 287 13 268 -5 245 -5 c 0
 221 -5 202 14 202 38 c 2
 202 39 l 1
 203 63 203 87 204 111 c 1
 204 155 l 1
 202 160 200 169 200 174 c 0
 200 175 200 176 200 177 c 0
 200 182 201 186 202 191 c 1
EndSplineSet
EndChar

StartChar: f
Encoding: 102 102 30
Width: 314
VWidth: -1282
Flags: W
HStem: 280 86<226.197 282.777> 311 85.949<80.2459 135> 389 20G<313.5 335> 666 86.107<221.247 316.225>
VStem: 121.34 86.394<401.917 655.597> 142.05 86.506<36.3427 280>
LayerCount: 2
Fore
SplineSet
257 666 m 0x58
 237.294 666 207.734 646.394 207.734 587.794 c 0x58
 207.734 544.035 211.447 565.992 222 369 c 1
 227 368 232 366 236 366 c 0
 237.991 365.801 239.936 365.704 241.836 365.704 c 0
 257.743 365.704 270.498 372.498 281 383 c 1
 287 397 306 409 321 409 c 2
 323 409 l 2
 347 409 366 389 366 365 c 0
 366 335.132 313.97 279.505 241.322 279.505 c 0
 237.221 279.505 233.11 279.671 229 280 c 0
 228 280 227 280 226 280 c 2
 227 251 l 2
 227.667 227.667 228.556 203.667 228.556 179.222 c 0
 228.556 112.762 224.688 -61.8663 62 -158 c 0
 56 -161 47 -164 40 -164 c 0
 16 -164 -3 -145 -3 -121 c 0
 -3 -56.9873 142.05 -80.3191 142.05 189.942 c 0xb4
 142.05 213.354 139.615 295.311 139 307 c 1
 129 310 120 311 114 311 c 0
 83.0362 308.185 82.3987 271 48 271 c 0
 24 271 5 290 5 314 c 0
 5 341.735 45.0475 396.949 118.154 396.949 c 0
 123.587 396.949 129.204 396.644 135 396 c 1
 130.712 490.329 121.34 546.81 121.34 584.512 c 0
 121.34 709.996 200.844 752.107 253.847 752.107 c 0
 305.527 752.107 350 721.603 350 689 c 0
 350 665 330 646 306 646 c 0
 281.5 646 276.6 666 257 666 c 0x58
EndSplineSet
EndChar

StartChar: k
Encoding: 107 107 31
Width: 390
VWidth: -1282
Flags: W
HStem: -39.2376 103.238<272.286 324.349> -9 21G<57 79> 237.27 88.857<147.661 229.655> 672 84<130.063 190.581>
VStem: 19.1592 86.4148<-0.142273 89.2219 423.702 646.753> 26 98<4.2353 89.2219> 185 155<-7.0813 55.4978> 233.748 87.188<176.992 225.139>
LayerCount: 2
Fore
SplineSet
159 174 m 1x31
 167 174 l 2
 170 174 174 173 178 172 c 1
 211.394 172 233.748 184.491 233.748 203.659 c 0
 233.748 208.105 232.546 212.909 230 218 c 1
 222.786 228.099 206.315 237 195 237 c 1
 193.173 237.183 191.396 237.27 189.668 237.27 c 0
 151.547 237.27 137.358 194.717 137 194 c 0
 137 189 137 183 136 178 c 1
 144 176 151 175 159 174 c 1x31
195.637 326.127 m 0
 261.782 326.127 320.936 268.036 320.936 202.558 c 0x79
 320.936 128.826 251.933 100.933 251 100 c 1
 266.405 75.3528 270.185 60.5368 272 56 c 1
 278 60 290 64 297 64 c 0
 321 64 340 45 340 21 c 0
 340 -5.16647 312.625 -39.2376 270.89 -39.2376 c 0xb2
 218.646 -39.2376 199.714 1.76219 185 41 c 0
 178 59 165 74 151 87 c 1
 142 88 133 90 124 92 c 1
 124 89 l 1
 120 68 117 47 112 26 c 0
 108 6 89 -9 69 -9 c 0
 45 -9 26 10 26 34 c 0x76
 26 48.0175 54.5374 145.743 54.5374 277.85 c 0
 54.5374 437.307 19.1592 475.846 19.1592 573.701 c 0
 19.1592 720.39 132.048 756 152 756 c 2
 154 756 l 1
 177 755 195 737 195 714 c 0
 195 696 182 677 165 672 c 0
 126.941 658.567 105.574 625.811 105.574 569.437 c 0x78
 105.574 502.527 133.21 466.774 140 314 c 1
 157.382 321.319 176.438 326.127 195.637 326.127 c 0
EndSplineSet
EndChar

StartChar: c
Encoding: 99 99 32
Width: 303
VWidth: -1282
Flags: W
HStem: -1.87665 87.4961<109.965 188.146> 240.085 86.915<119.432 201.161>
VStem: 14.9376 85.8884<92.6918 219.304>
LayerCount: 2
Fore
SplineSet
14.9376 154.177 m 0
 14.9376 274.685 96.3566 327 162 327 c 4
 224.512 327 271 280.8 271 250 c 4
 271 226 251 207 227 207 c 4
 193.659 207 194.767 240.085 158.663 240.085 c 0
 150.53 240.085 127.014 228.394 118 216 c 4
 104.686 198.247 100.826 192.313 100.826 161.831 c 0
 100.826 157.972 100.888 153.72 101 149 c 4
 101 94.8137 130.713 85.6195 150.521 85.6195 c 0
 174.5 85.6195 186.553 101.212 188 107 c 4
 194 123 212 136 229 136 c 4
 253 136 272 117 272 93 c 4
 272 60.2216 227.257 -1.87665 150.842 -1.87665 c 0
 84.7762 -1.87665 14.9376 48.4456 14.9376 154.177 c 0
EndSplineSet
EndChar

StartChar: h
Encoding: 104 104 33
Width: 334
VWidth: -1282
Flags: W
HStem: -171 83<85.9099 140.976> -8 21G<54 76.5> 661 85<130.602 193.343>
VStem: 19.1499 86.7291<-1.83008 150.502 310.293 635.225> 40.4315 85.5685<306 548.951> 217 86<13.4866 224.844>
LayerCount: 2
Fore
SplineSet
19.1499 567.082 m 0xf4
 19.1499 702.248 131.708 746 152 746 c 4
 153 746 154 746 155 746 c 4
 179 746 198 727 198 703 c 4
 198 685 184 666 167 661 c 4
 139.218 651.383 105.879 626.402 105.879 566.717 c 0xf4
 105.879 529.029 124.231 424.552 126 306 c 5
 140.181 313.09 157.162 319.792 177.936 319.792 c 0
 243.436 319.792 303 254.626 303 157 c 4
 303 135.473 296.677 18.9914 258 -55 c 4
 222.222 -122.263 150.8 -171 124 -171 c 4
 100 -171 81 -151 81 -127 c 4
 81 -112 92 -94 106 -88 c 4
 191.437 -46.6597 204.127 45.178 211 91 c 4
 215 114 217 135 217 155 c 4
 217 167.908 212.341 225.165 181 233 c 4
 177.28 234.24 162.376 230.168 157 223 c 5
 142.358 208.358 122.536 126.602 117 98 c 5
 115 75 111 52 108 29 c 4
 105 8 87 -8 66 -8 c 4
 42 -8 22 11 22 35 c 4
 22 36 22 37 22 38 c 4
 23.8522 82.4537 40.4315 132.333 40.4315 280.999 c 0xec
 40.4315 435.127 19.1499 515.063 19.1499 567.082 c 0xf4
EndSplineSet
EndChar

StartChar: b
Encoding: 98 98 34
Width: 385
VWidth: -1282
Flags: W
HStem: 1.63177 86.7599<153.562 248.232> 240.01 86.245<206.755 262.894> 723 20G<98.5 120.5>
VStem: 46.6607 86.5863<347.561 702.741> 267.709 86.123<108.393 239.688>
LayerCount: 2
Fore
SplineSet
82.3923 229.138 m 0
 82.3923 323.982 46.6607 418.826 46.6607 545.284 c 0
 46.6607 600.404 53.1071 655.393 66 709 c 0
 70 728 89 743 108 743 c 2
 109 743 l 2
 132 743 151 723 151 700 c 0
 151 678.942 133.247 635.314 133.247 543.372 c 0
 133.247 452.858 154.285 384.438 164 297 c 1
 184.897 313.075 210.352 326.255 245.853 326.255 c 0
 289.045 326.255 353.832 303.608 353.832 171.896 c 0
 353.832 35.6846 246.772 1.63177 192.359 1.63177 c 0
 169.648 1.63177 147.528 6.54238 126 15 c 1
 119 5 103 -3 91 -3 c 0
 67 -3 48 17 48 41 c 2
 48 46 l 1
 49 54 51 62 52 70 c 1
 33.4253 94.29 19 126.8 19 141 c 0
 19 165 38 184 62 184 c 0
 67 184 75 182 80 180 c 1
 81.4641 196.105 82.3923 212.746 82.3923 229.138 c 0
267.709 173.353 m 0
 267.709 230.945 254.684 240 246 240 c 0
 245.549 240 245.023 240.01 244.424 240.01 c 0
 234.386 240.01 203.774 237.214 162 138 c 1
 160 124 156 111 153 97 c 1
 164.937 91.4292 179.408 88.3917 192.884 88.3917 c 0
 217.537 88.3917 267.709 98.5445 267.709 173.353 c 0
EndSplineSet
EndChar

StartChar: s
Encoding: 115 115 35
Width: 302
VWidth: -1282
Flags: W
HStem: -2.65142 87.0822<99.2667 180.988> 245 86.126<123.086 188.992>
VStem: 34.7452 87.2578<213.367 243.997>
LayerCount: 2
Fore
SplineSet
122.003 233.996 m 0
 122.025 199.729 268.41 200.734 268.41 98.6082 c 0
 268.41 37.8524 210.848 -2.65142 148.535 -2.65142 c 0
 73.8882 -2.65142 15 56.7421 15 91 c 0
 15 115 34 134 58 134 c 0
 98.392 134 94.8681 84.4308 148.665 84.4308 c 0
 170.023 84.4308 182 95.2862 182 98 c 2
 182 99 l 1
 172.364 118.272 34.7452 133.123 34.7452 235.887 c 0
 34.7452 278.609 74.226 331.126 146.769 331.126 c 0
 220.132 331.126 272 268.503 272 242 c 0
 272 218 252 199 228 199 c 0
 189.701 199 188.783 245 144 245 c 0
 134.2 245 122 238.566 122.003 233.996 c 0
EndSplineSet
EndChar

StartChar: e
Encoding: 101 101 36
Width: 351
VWidth: -1282
Flags: W
HStem: -2 86<114.113 197.22> 242.657 86.343<126.021 184.744>
VStem: 15 331<199.763 247.06>
LayerCount: 2
Fore
SplineSet
15 150 m 4
 15 247.06 80.0352 329 158 329 c 4
 212.65 329 255 286.4 255 258 c 5
 280.881 276.486 293.4 282 303 282 c 4
 327 282 346 263 346 239 c 4
 346 228 339 212 330 205 c 4
 259.215 148.094 181.07 124.938 107 120 c 5
 116.373 95.0055 132.2 84 149 84 c 4
 159.4 84 185.162 92.5224 201 111 c 4
 208 120 223 127 234 127 c 4
 258 127 277 108 277 84 c 4
 277 44.9 207.691 -2 149 -2 c 4
 63.9863 -2 15 72.8229 15 150 c 4
185 223 m 5
 179.581 226.612 172.146 242.657 158.971 242.657 c 1
 130.966 238.956 130.584 229.875 116 208 c 5
 143.888 211.984 124.572 204.116 185 223 c 5
EndSplineSet
EndChar

StartChar: r
Encoding: 114 114 37
Width: 344
VWidth: -1282
Flags: W
HStem: -4 21G<74 97> 240.404 87.596<145.861 206.518>
VStem: 42 86<1.13916 212.38> 214 88<144.731 234.931>
LayerCount: 2
Fore
SplineSet
39 116 m 1
 39 151.07 38 115.982 38 162 c 1
 37 191 36 225 33 251 c 1
 30 255 22 262 19 281 c 1
 19 288 l 2
 19 311 37 331 62 331 c 3
 94 331 103 300 106 297 c 1
 128.776 312.184 153.457 328 187 328 c 0
 279.531 328 302 223.701 302 208 c 0
 302 184.205 295.425 138 256 138 c 0
 232 138 212 157 212 181 c 0
 212 183 213 186 213 188 c 0
 215 199 214 206 214 208 c 0
 214 213.256 202.582 233.837 202 235 c 0
 198.169 238.831 193.598 240.404 188.677 240.404 c 0
 172.095 240.404 151.545 222.545 142 213 c 1
 133 200 126 172 125 157 c 1
 125 141 126 127 126 112 c 0
 127 88 128 64 128 43 c 2
 128 39 l 2
 128 15 109 -4 85 -4 c 0
 63 -4 43 15 42 37 c 1
 42 38 l 1
 41 64 40 90 39 116 c 1
EndSplineSet
EndChar

StartChar: o
Encoding: 111 111 38
Width: 315
VWidth: -1282
Flags: W
HStem: -3.15102 86.151<113.258 179.049> 241.094 86.906<123.651 187.613>
VStem: 15.9378 85.9682<92.9659 219.567> 197 86.094<100.544 233.792>
LayerCount: 2
Fore
SplineSet
145.999 -3.15102 m 0
 82.517 -3.15102 15.9378 52.8887 15.9378 154.099 c 0
 15.9378 241.699 75.5904 328 162 328 c 5
 223.574 324.996 283 264.771 283 177 c 4
 283.062 174.938 283.094 172.871 283.094 170.802 c 0
 283.094 95.0211 237.656 -3.15102 145.999 -3.15102 c 0
155.905 241.094 m 0
 145.105 241.094 101.906 212.265 101.906 155.523 c 0
 101.906 98.5263 132.655 83 147 83 c 4
 157 83 197 100.35 197 176 c 4
 197 228.99 163.494 241.094 155.905 241.094 c 0
EndSplineSet
EndChar

StartChar: j
Encoding: 106 106 39
Width: 209
VWidth: -1282
Flags: W
HStem: -248.996 86.615<-66.6931 19.1079> -103 86<-69.1278 -13.8462> 310 20G<48.5 79.8396> 456 93<15.93 94.8176>
VStem: -156 86<-158.923 -103.426> 10 91<461.965 542.782> 36.6463 87.2237<-44.8532 193.844> 46.0956 86.3454<-134.215 267.988>
LayerCount: 2
Fore
SplineSet
101 502 m 4xfc
 101 476 80 456 55 456 c 4
 30 456 10 476 10 502 c 4
 10 528 30 549 55 549 c 4
 80 549 101 528 101 502 c 4xfc
45.0131 197.17 m 0
 45.0131 250.468 18 258.241 18 286 c 0
 18 309 37 330 60 330 c 2
 61 330 l 2
 98.6791 330 131.781 264.765 131.781 193.765 c 0
 131.781 152.979 123.87 123.517 123.87 91.1154 c 0xfa
 123.87 50.5619 132.441 -1.71098 132.441 -49.4048 c 0
 132.441 -198.746 35.0822 -248.996 -29.8236 -248.996 c 0
 -102.692 -248.996 -156 -191.681 -156 -126 c 0
 -156 -74.4282 -113.194 -20.3643 -56 -17 c 1
 -52 -17 l 2
 -28 -17 -9 -36 -9 -60 c 0
 -9 -82 -27 -101 -49 -103 c 1
 -61.6 -103 -70 -120.1 -70 -128 c 0
 -70 -146.859 -52.2211 -162.381 -28.0281 -162.381 c 0
 -21.7209 -162.381 -14.9777 -161.326 -8 -159 c 1
 26.6425 -144.735 46.0956 -101.938 46.0956 -44.3844 c 0xf9
 46.0956 -5.04927 36.6463 34.2859 36.6463 86.7327 c 0xfa
 36.6463 126.586 45.0131 168.717 45.0131 197.17 c 0
EndSplineSet
EndChar

StartChar: i
Encoding: 105 105 40
Width: 214
VWidth: -1282
Flags: W
HStem: -4.49546 21G<75.9061 112.401> 449 93<24.93 103.818>
VStem: 19 91<454.965 535.782> 28.5 126.5<12.4037 93.5778> 52.5 87.514<83.9442 287.832>
LayerCount: 2
Fore
SplineSet
110 495 m 4xe0
 110 469 89 449 64 449 c 4
 39 449 19 469 19 495 c 4
 19 521 39 542 64 542 c 4
 89 542 110 521 110 495 c 4xe0
52.5 200.991 m 0xc8
 52.5 244.173 36 255.866 36 279 c 4
 36 303 55 322 79 322 c 6
 81 322 l 5
 134.454 318.436 140.014 217.051 140.014 200.492 c 0xc8
 140.014 159.495 127.936 128.423 120 98 c 5
 139 94 155 74 155 55 c 6
 155 51 l 5
 153.298 22.0704 128.58 -4.49546 96.2229 -4.49546 c 0
 55.5892 -4.49546 28.5 28.9819 28.5 66.5 c 0xd0
 28.5 108.092 52.5 166.425 52.5 200.991 c 0xc8
EndSplineSet
EndChar

StartChar: d
Encoding: 100 100 41
Width: 325
VWidth: -1282
Flags: W
HStem: -4 87<116.27 188.556> 672 86<136.841 220.863>
VStem: 16 87<94.4686 212.829> 38 86<478.519 661.5> 200 86<91.4118 233.252>
LayerCount: 2
Fore
SplineSet
38 600 m 0xd8
 38 694.605 103.912 758 171 758 c 2
 176 758 l 5
 227.773 756.151 266 723.68 266 696 c 4
 266 672 246 653 222 653 c 4
 197.447 653 192.055 672 173 672 c 4
 133.8 672 124 616.839 124 598 c 0xd8
 124 582.987 128.388 486.871 195 374 c 5
 226.635 318.262 286 242.55 286 150 c 0
 286 61.8527 227.52 -4 155 -4 c 0
 78.823 -4 16 67.0711 16 151 c 0xe8
 16 179.215 24.2703 254.622 106 313 c 4
 112 317 118 321 124 325 c 4
 123.953 325.093 38 459.005 38 600 c 0xd8
155 83 m 0
 180.711 83 200 114.134 200 151 c 0
 200 190.6 181.939 224.445 168 250 c 5
 149.628 240.814 103 202.808 103 151 c 0xe8
 103 108.195 130.471 83 155 83 c 0
EndSplineSet
EndChar

StartChar: a
Encoding: 97 97 42
Width: 379
VWidth: -1282
Flags: W
HStem: -1.32415 86.3242<105.314 160.619> 243 86.444<131.222 212.577>
VStem: 14.9045 86.0955<86.0304 210.416>
LayerCount: 2
Fore
SplineSet
14.9045 133.57 m 0
 14.9045 195.679 55.624 329 178 329 c 0
 181.333 329 184.667 329.444 188 329.444 c 0
 193.571 328.949 212.653 328.173 243 313 c 1
 250 320 263 325 273 325 c 0
 297 325 317 306 317 282 c 0
 317 264.746 294 228.229 294 155 c 0
 294 144 294 134 295 123 c 1
 298 124 303 125 306 125 c 0
 330 125 349 106 349 82 c 0
 349 76 346 66 343 60 c 2
 330 37 l 2
 327 32 321 25 316 22 c 2
 290 6 l 2
 284 2 274 -1 267 -1 c 0
 258.745 -1 230.308 2.46154 222 44 c 1
 218.008 40.0082 186.352 -1.32415 132.88 -1.32415 c 0
 64.7632 -1.32415 14.9045 55.9607 14.9045 133.57 c 0
101 131 m 0
 101 107.135 113.506 88.6235 128 85 c 1
 155.079 85 178.369 122.26 213 230 c 1
 204 237 193 242 183 243 c 1
 172 243 l 1
 123.867 238.989 101 169.961 101 131 c 0
EndSplineSet
EndChar

StartChar: g
Encoding: 103 103 43
Width: 359
VWidth: -1282
Flags: W
HStem: -249.593 86.554<104.677 185.51> -33 20G<118 131> -0.324147 86.3242<110.648 165.244> 244 86.444<135.137 215.207>
VStem: 14.8738 86.1262<-159.251 -99.9862 88.8819 204.597> 214 86.099<-133.469 33>
LayerCount: 2
Fore
SplineSet
17.9045 134.57 m 0
 17.9045 196.679 58.624 330 181 330 c 4
 184.333 330 187.667 330.444 191 330.444 c 0
 196.68 329.94 216.173 329.413 247 314 c 5
 254 321 266 326 276 326 c 4
 300 326 320 307 320 283 c 4
 320 280 319 275 318 272 c 5
 318 270 l 6
 318 269 317 268 317 267 c 4
 300.587 211.793 296.247 166.173 296.247 122.953 c 0
 296.247 78.6509 300.099 31.5094 300.099 -18.4715 c 0
 300.099 -93.4829 290.326 -156.674 241 -206 c 4
 219.972 -227.028 186.045 -249.593 140.728 -249.593 c 0
 70.3022 -249.593 14.8738 -194.054 14.8738 -128.303 c 0
 14.8738 -79.7068 49.2567 -25.6814 110 -14 c 4
 112 -14 117 -13 119 -13 c 4
 143 -13 162 -33 162 -57 c 4
 162 -77 146 -96 126 -99 c 4
 111.692 -101.385 101 -117.263 101 -127 c 4
 101 -144.997 116.055 -163.039 140.234 -163.039 c 0
 164.14 -163.039 188.634 -143.278 200 -116 c 4
 210 -93 213 -62 214 -30 c 4
 214 -10 214 12 213 33 c 5
 189.4 11.7596 169.553 -0.324147 136.085 -0.324147 c 0
 65.1767 -0.324147 17.9045 62.4971 17.9045 134.57 c 0
105 132 m 4
 105 106.219 116.882 89.5294 131 86 c 5
 158.079 86 181.369 123.26 216 231 c 5
 207 238 196 243 186 244 c 5
 175 244 l 5
 125.043 239.837 105 166.65 105 132 c 4
EndSplineSet
EndChar

StartChar: l
Encoding: 108 108 44
Width: 192
VWidth: -1282
Flags: W
HStem: -6.49546 21G<74.4798 112.207>
VStem: 19.3077 86.3833<326.496 693.838> 28.2441 125.756<9.6873 90.0587> 47.7906 87.4734<84.7424 445.18>
LayerCount: 2
Fore
SplineSet
47.7906 238.329 m 0x90
 47.7906 326.711 19.3077 415.094 19.3077 532.937 c 0
 19.3077 589.177 25.5385 645.308 38 700 c 4
 42 719 61 734 80 734 c 4
 104 734 123 715 123 691 c 4
 123 675.293 105.691 628.173 105.691 533.933 c 0xc0
 105.691 417.459 135.264 351.942 135.264 242.748 c 0x90
 135.264 184.049 124.461 139.932 118 96 c 5
 138 93 154 73 154 53 c 4
 154 52 154 51 154 50 c 4
 152.418 23.0997 130.118 -6.49546 94.2951 -6.49546 c 0
 54.6645 -6.49546 28.2441 25.5829 28.2441 69.5722 c 0xa0
 28.2441 108.606 47.7906 179.88 47.7906 238.329 c 0x90
EndSplineSet
EndChar

StartChar: t
Encoding: 116 116 45
Width: 326
VWidth: -1282
Flags: W
HStem: -4.06866 87.0687<155.232 190.631> 290 96<38.0781 102.203 192.327 255.016> 295 86<6.18445 102.203 193.984 281.447> 488 20G<106.5 128>
VStem: 66.981 86.473<83.8992 204.994> 77 83<410.471 503.465> 187 86<83.0048 127.343>
LayerCount: 2
Fore
SplineSet
103 374 m 1xba
 95.5304 420.685 77 446.8 77 465 c 0
 77 488 95 507 118 508 c 1
 120 508 l 2
 136 508 154 496 160 482 c 0
 175 448 185 413 190 377 c 1
 240.512 383.735 234.8 386 246 386 c 0
 270 386 290 367 290 343 c 0
 290 324 274 305 256 301 c 0
 235 296 214 292 193 290 c 1xd6
 187.351 202.435 153.454 156.08 153.454 117.13 c 0
 153.454 96.652 161.672 83 174 83 c 0
 182.9 83 187 89.6 187 94 c 0
 189 115 209 132 230 132 c 0
 254 132 273 113 273 89 c 2
 273 84 l 1
 265.918 24.9842 214.463 -4.06866 175.438 -4.06866 c 0
 124.558 -4.06866 66.981 37.9791 66.981 115.295 c 0
 66.981 180.333 98.5664 208.947 106 287 c 1
 83 288 60 291 37 295 c 0
 17 299 1 317 1 337 c 0
 1 361 21 381 45 381 c 0
 47 381 50 380 52 380 c 0
 69 377 86 375 103 374 c 1xba
EndSplineSet
EndChar

StartChar: u
Encoding: 117 117 46
Width: 320
VWidth: -1282
Flags: W
HStem: -2.75596 86.6286<107.394 185.259> 315 20G<71 95 193 215.124>
VStem: 15 85.384<91.4372 279.329> 202.657 86.343<100.077 254.962>
LayerCount: 2
Fore
SplineSet
145.023 -2.75596 m 3
 76.8759 -2.75596 15.9537 52.9876 15.9537 128.392 c 0
 15.9537 129.589 15.969 130.792 16 132 c 0
 15.3333 141.333 15 150.778 15 160.259 c 3
 15 218.955 26.2019 266.405 43 307 c 0
 47.52 318.3 59 335 83 335 c 0
 107 335 127 316 127 292 c 3
 127 275.89 100.384 236.51 100.384 156.678 c 0
 100.384 146.249 101 139.057 101 132 c 3
 101 101.995 123.864 83.8726 146.129 83.8726 c 3
 150.273 83.8726 202.657 87.6889 202.657 169.704 c 3
 202.657 272.45 162 245.798 162 291 c 3
 162 315 181 334 205 334 c 3
 225.248 334 289 303.922 289 164.25 c 3
 289 37.8441 192.607 -2.75596 145.023 -2.75596 c 3
EndSplineSet
EndChar

StartChar: y
Encoding: 121 121 47
Width: 401
VWidth: -1282
Flags: W
HStem: -251.962 86.552<150.294 230.318> -48 20G<111.819 141> -3.14113 87.1411<155.681 210.097> 316 20G<74.5 94 311 332>
VStem: 60.1661 86.2159<-148.391 -69.679> 67.8335 86.0115<87.0036 291.02> 257 86.114<-135.817 30> 278 86<221.029 329.861>
LayerCount: 2
Fore
SplineSet
73 193 m 0xf6
 73 239.329 44 271.272 44 292 c 0
 44 315 63 335 86 336 c 1
 87 336 l 2
 101 336 118 326 125 314 c 0
 145 279 159 232 159 192 c 0
 159 164.003 153.845 136.005 153.845 122.006 c 0
 153.845 84.4309 172.81 84.2974 174 84 c 0
 221.94 84 239.987 175.289 278 302 c 0
 278 303 279 302 279 303 c 0
 284 320 302 335 320 335 c 0
 344 335 364 316 364 292 c 0xf5
 364 289 363 283 362 280 c 0
 362 279 361 279 361 278 c 0
 351.475 249.424 340.152 180.493 340.152 115.488 c 0
 340.152 72.8936 343.114 27.5205 343.114 -19.5208 c 0
 343.114 -24.6611 343.078 -29.8213 343 -35 c 0
 343 -206.413 248.352 -251.962 185.253 -251.962 c 0
 109.286 -251.962 60.1661 -187.997 60.1661 -131.45 c 0
 60.1661 -78.3338 94.6371 -28 129 -28 c 0
 153 -28 172 -47 172 -71 c 0
 172 -100.434 146.382 -103.902 146.382 -128.929 c 0xfa
 146.382 -131.111 146.576 -133.458 147 -136 c 0
 150.46 -151.568 166.971 -165.41 188.003 -165.41 c 0
 216.099 -165.41 235.615 -139.124 244 -119 c 0
 254 -96 257 -67 257 -34 c 0
 257 -13 257 8 256 30 c 1
 220.211 -2.21026 189.478 -3.14113 177.863 -3.14113 c 0
 125.654 -3.14113 67.8335 34.7412 67.8335 120.296 c 0
 67.8335 147.147 73 175.896 73 193 c 0xf6
EndSplineSet
EndChar

StartChar: q
Encoding: 113 113 48
Width: 381
VWidth: -1282
Flags: W
HStem: -256.249 86.249<279.642 319.013> -2.32415 86.3242<105.314 161.893> 242 86.444<131.222 212.577>
VStem: 14.9045 86.0955<85.0304 209.416> 187.606 85.652<-165.062 28.9678> 210 87.14<-125.919 31> 320.278 86.802<-168.52 -101.642>
LayerCount: 2
Fore
SplineSet
14.9045 132.57 m 0xf6
 14.9045 194.679 55.624 328 178 328 c 4
 181.333 328 184.667 328.444 188 328.444 c 0
 193.571 327.949 212.653 327.173 243 312 c 5
 250 319 263 324 273 324 c 4
 297 324 317 305 317 281 c 4
 317 265.303 293.769 220.669 293.769 139.09 c 0
 293.769 106.624 297.14 71.6999 297.14 34.4914 c 0xf6
 297.14 -48.2972 273.258 -97.8348 273.258 -132.239 c 0
 273.258 -143.157 275.663 -152.551 282 -161 c 4
 286 -166 293 -170 299 -170 c 4
 315.336 -170 320.278 -157.893 320.278 -150.031 c 0
 320.278 -146.454 319 -141.311 319 -139 c 4
 319 -115 339 -96 363 -96 c 4
 375.284 -96 407.08 -103.436 407.08 -151.432 c 0
 407.08 -203.687 366.296 -256.249 299.719 -256.249 c 0
 246.447 -256.249 187.606 -215.842 187.606 -128.697 c 0xfa
 187.606 -68.8106 210 -48.8485 210 31 c 5
 192.526 13.5262 165.932 -2.32415 132.88 -2.32415 c 0
 64.7632 -2.32415 14.9045 54.9607 14.9045 132.57 c 0xf6
101 130 m 4
 101 106.135 113.506 87.6235 128 84 c 5
 155.079 84 178.369 121.26 213 229 c 5
 204 236 193 241 183 242 c 5
 172 242 l 5
 123.867 237.989 101 168.961 101 130 c 4
EndSplineSet
EndChar

StartChar: x
Encoding: 120 120 49
Width: 404
VWidth: -1282
Flags: W
HStem: -2.15102 86.151<73.4775 144.816 260.029 351.599> 242.094 86.906<90.2826 153.596 270.391 359.364>
VStem: 163 85.906<99.1114 220.883>
LayerCount: 2
Fore
SplineSet
10 242 m 4
 10 268.108 55.2278 329 128 329 c 5
 164 328 193 308 213 284 c 5
 250.596 325.774 289.939 328.729 303.32 328.729 c 0
 340.528 328.729 392 304.037 392 267 c 4
 392 243 373 224 349 224 c 4
 323.15 224 319.625 242 302 242 c 5
 288.896 239.816 248.906 211.13 248.906 156.523 c 0
 248.906 115.314 267.344 84 295 84 c 4
 307.65 84 319.15 103 341 103 c 4
 365 103 385 84 385 60 c 4
 385 27.6645 341.402 -2.15102 292.999 -2.15102 c 0
 253.104 -2.15102 222.372 18.1062 203 41 c 5
 197.372 33.9655 166.6 -2.15102 111.999 -2.15102 c 0
 63.5412 -2.15102 11 33.1845 11 70 c 4
 11 94 30 113 54 113 c 4
 84.8672 113 86.0625 84 114 84 c 4
 123.8 84 163 102.6 163 177 c 4
 163 229.99 129.494 242.094 121.905 242.094 c 0
 102.418 242.094 85.9452 199 53 199 c 4
 29 199 10 218 10 242 c 4
EndSplineSet
EndChar

StartChar: v
Encoding: 118 118 50
Width: 356
VWidth: -1282
Flags: W
HStem: -8 21G<183.219 196.5> 320 20G<37 55 284 307>
VStem: 253.432 85.313<185.349 334.922>
LayerCount: 2
Fore
SplineSet
296 340 m 0
 318 340 337 321 338 299 c 0
 338.495 291.898 338.745 284.797 338.745 277.709 c 0
 338.745 186.398 309.096 145.617 227 13 c 0
 220 2 203 -8 190 -8 c 7
 176.439 -8 110.163 9.60409 75 119 c 0
 60.0552 165.495 60.4834 208.139 15 267 c 0
 10 274 5 286 5 294 c 0
 5 318 25 338 49 338 c 0
 61 338 76 330 83 320 c 0
 157.678 222.594 139.86 158.71 179 100 c 1
 184 107 187 115 192 122 c 0
 219.318 163.696 253.432 210.894 253.432 280.015 c 0
 253.432 284.339 253.289 288.67 253 293 c 0
 253 294 252 295 252 296 c 0
 252 320 272 340 296 340 c 0
EndSplineSet
EndChar

StartChar: w
Encoding: 119 119 51
Width: 530
VWidth: -1282
Flags: W
HStem: -8 21G<165.63 184.5 352.5 364.5> 320 20G<23 41 242 259 452 476>
VStem: 421.432 86.313<185.215 334.922>
LayerCount: 2
Fore
SplineSet
358 117 m 5
 368.111 137.222 421.432 197.446 421.432 280.015 c 0
 421.432 284.339 421.289 288.67 421 293 c 4
 421 294 421 295 421 296 c 4
 421 320 440 340 464 340 c 6
 465 340 l 6
 487 340 506 321 507 299 c 4
 507.495 291.898 507.745 284.797 507.745 277.709 c 0
 507.745 192.304 477.083 144.412 434 75 c 6
 395 13 l 6
 388 2 371 -8 358 -8 c 4
 347 -8 332 0 325 9 c 4
 286.6 57 266.714 104.501 254 149 c 5
 239.464 98.1245 242.08 97.24 217 22 c 4
 211 6 193 -8 176 -8 c 4
 155.26 -8 99.2755 19.2285 64 118 c 5
 44.5995 178.357 42.2994 210.771 0 268 c 4
 -5 274 -8 286 -8 294 c 4
 -8 318 11 337 35 337 c 4
 47 337 63 330 70 320 c 4
 130.706 237.22 132.579 168.843 157 120 c 5
 181 208 l 6
 190 242 199 275 209 308 c 4
 214 325 233 339 251 339 c 4
 267 339 284 327 290 313 c 4
 326.851 228.77 328.816 189.581 349 138 c 4
 352 131 355 124 358 117 c 5
EndSplineSet
EndChar

StartChar: z
Encoding: 122 122 52
Width: 405
VWidth: -1282
Flags: W
HStem: -252.461 87.105<122.855 230.579> -50 20G<92.8523 120> 217.14 85.551<119.859 246.525> 241 86.637<170.647 264.394>
VStem: 32.2616 86.5744<-160.527 -98.2007> 281 86<-118.143 -1.20754>
LayerCount: 2
Fore
SplineSet
161.862 217.14 m 1xec
 103.384 217.14 52 258.156 52 292 c 1
 52 316 71 335 95 335 c 1
 127.411 335 131.373 302.691 162.843 302.691 c 1xec
 184.498 302.691 218.063 327.637 260.049 327.637 c 1
 323.275 327.637 356 285.098 356 236 c 1
 356 149.89 250.574 116.489 235 110 c 1
 335.963 78.1169 367 -3.48328 367 -58 c 1
 367 -183.719 243.268 -252.461 165.904 -252.461 c 1
 86.3183 -252.461 32.2616 -193.965 32.2616 -130.791 c 1
 32.2616 -74.1033 77.7046 -30 108 -30 c 1
 132 -30 152 -49 152 -73 c 1
 152 -87 142 -103 130 -110 c 1
 122.622 -113.689 118.836 -121.077 118.836 -129.286 c 1
 118.836 -145.684 133.941 -165.356 165.693 -165.356 c 1
 210.486 -165.356 281 -122.814 281 -59 c 1
 281 -21.425 246.212 32 181 32 c 1
 131.8 32 125.65 10 99 10 c 1
 75 10 56 29 56 53 c 1
 56 87.5088 123.487 153.034 188 184 c 1
 236.398 205.999 264.578 214.311 270 236 c 0
 270.538 238.577 271.02 241 265 241 c 1xdc
 236.355 241 211.719 217.14 161.862 217.14 c 1xec
EndSplineSet
EndChar

StartChar: bracketleft
Encoding: 91 91 53
Width: 443
VWidth: -1282
Flags: W
HStem: -166.109 92.109<304.074 409.172> 611.873 92.179<304.104 406.421>
VStem: 191 92<-59.5229 462.39>
LayerCount: 2
Fore
SplineSet
365.912 611.873 m 0
 363.887 611.873 361.863 612.222 355.789 612.222 c 0
 338.72 612.222 309.298 609.175 305 598 c 0
 284.989 547.971 283 368.766 283 189 c 0
 283 150 291 112 291 76 c 9
 296 25 292 -27 304 -56 c 0
 309 -69 358 -73 372 -74 c 1
 391.703 -74 415.594 -92.1264 415.594 -119.316 c 0
 415.594 -147.392 390.844 -166.109 368.495 -166.109 c 0
 367.645 -166.109 366.811 -166.074 366 -166 c 0
 298 -158 243 -147 224 -90 c 0
 207 -40 199 10 199 61 c 2
 199 75 l 2
 199 111 191 148 191 186 c 2
 191 324 l 1
 195.5 548.978 198.909 527.963 221 634 c 0
 233.553 690.005 335.614 704.052 365.129 704.052 c 0
 366.18 704.052 367.14 704.034 368 704 c 0
 383.522 704 412.594 688.818 412.594 657.684 c 0
 412.594 631.369 391.747 611.873 365.912 611.873 c 0
EndSplineSet
EndChar

StartChar: backslash
Encoding: 92 92 54
Width: 492
VWidth: 0
Flags: W
HStem: 672.849 20G<60.0466 83.253>
LayerCount: 2
Fore
SplineSet
464.849 -146.156 m 0
 464.849 -170.225 446.062 -192.849 417.844 -192.849 c 0
 399.65 -192.849 382.398 -182.756 375 -165 c 6
 31 627 l 6
 28.3985 633.244 27.1505 639.758 27.1505 646.156 c 0
 27.1505 670.225 45.9375 692.849 74.1557 692.849 c 0
 92.3503 692.849 109.602 682.756 117 665 c 6
 461 -127 l 6
 463.602 -133.244 464.849 -139.758 464.849 -146.156 c 0
EndSplineSet
EndChar

StartChar: bracketright
Encoding: 93 93 55
Width: 443
VWidth: -1282
Flags: W
HStem: -166 92<32.7957 137.926> 612 92<35.6375 139.418>
VStem: 159 92<-59.5229 459.23>
LayerCount: 2
Fore
SplineSet
27 -120 m 0
 27 -83.2 59.1 -74 70 -74 c 4
 84 -73 133 -69 138 -56 c 4
 150 -27 146 25 151 76 c 21
 151 112 159 150 159 189 c 4
 159 508.676 147.538 571.654 137 598 c 4
 133 609 102 612 85 612 c 0
 82 612 79 612 76 612 c 0
 50.7 612 30 630.4 30 658 c 0
 30 694.8 65.2 704 74 704 c 6
 78 704 l 2
 109 704 209 689 221 634 c 4
 243.091 527.963 246.5 548.978 251 324 c 5
 251 186 l 6
 251 148 243 111 243 75 c 6
 243 61 l 6
 243 10 235 -40 218 -90 c 4
 199 -147 144 -158 76 -166 c 4
 75 -166 74 -166 73 -166 c 0
 48.5507 -166 27 -146.733 27 -120 c 0
EndSplineSet
EndChar

StartChar: asciicircum
Encoding: 94 94 56
Width: 498
VWidth: 0
Flags: W
HStem: 413.622 195.433
VStem: 118.622 258.756<434.767 506.353>
LayerCount: 2
Fore
SplineSet
165.107 413.622 m 0
 141.216 413.622 118.622 434.669 118.622 460.893 c 0
 118.622 472.932 123.372 484.878 133 494 c 0
 133.637 494.604 208.249 609.055 251.533 609.055 c 0
 292.791 609.055 364 492 364 492 c 2
 372.878 482.628 377.378 470.824 377.378 459.107 c 0
 377.378 434.767 355.589 412.122 329.144 412.122 c 0
 317.433 412.122 305.878 416.628 297 426 c 2
 249 476 l 1
 198 427 l 2
 188.628 418.122 176.824 413.622 165.107 413.622 c 0
EndSplineSet
EndChar

StartChar: underscore
Encoding: 95 95 57
Width: 625
VWidth: 0
Flags: W
HStem: -165 94<-40.7823 665.782>
LayerCount: 2
Fore
SplineSet
625 -71 m 6
 651 -71 672 -92 672 -118 c 4
 672 -144 651 -165 625 -165 c 6
 0 -165 l 6
 -26 -165 -47 -144 -47 -118 c 4
 -47 -92 -26 -71 0 -71 c 6
 625 -71 l 6
EndSplineSet
EndChar

StartChar: grave
Encoding: 96 96 58
Width: 379
VWidth: -1282
Flags: W
HStem: 427.278 92.722<244.4 301.056>
VStem: 96.5438 211.178<474.491 541.046>
LayerCount: 2
Fore
SplineSet
96.5438 541.046 m 0
 96.5438 564.542 116.441 587.456 144.046 587.456 c 0
 161.616 587.456 178.019 577.413 186 560 c 2
 195 541 l 1
 273 520 l 2
 293.833 514.167 307.722 495.139 307.722 474.491 c 0
 307.722 448.072 284.695 427.278 260.491 427.278 c 0
 256.361 427.278 252.167 427.833 248 429 c 2
 149 456 l 2
 135 460 125 469 119 482 c 2
 101 521 l 2
 97.9809 527.587 96.5438 534.4 96.5438 541.046 c 0
EndSplineSet
EndChar

StartChar: dollar
Encoding: 36 36 60
Width: 625
VWidth: -1282
Flags: W
HStem: 6 93<196.626 266 361 426.995> 496 21G<473.204 504.5> 580 92<215.944 275>
VStem: 67 103<140.103 191.769> 79 91<141.97 200.818> 97 91<449.812 552.252> 265 94<-88.4788 4.47179 99 276 408 523.38> 275 94<408 568 669.618 753.301> 458 92<128.199 229.94>
LayerCount: 2
Fore
SplineSet
366 374 m 1xe580
 490.199 332.6 550 257 550 179 c 0
 550 86.6848 469.096 11.0913 360 2 c 1
 359 -49 l 2
 359 -75 337 -95 311 -95 c 0
 285 -95 265 -73 265 -47 c 2
 266 6 l 1
 200 16 138 43 85 84 c 0
 75 92 67 109 67 121 c 0xf280
 67 124 68 130 69 133 c 2
 79 172 l 2xe880
 84 191 104 207 124 207 c 0
 149 207 170 186 170 161 c 0xf080
 170 152.6 166.593 142.075 166 140 c 1
 197 120 231 106 267 99 c 1
 271 309 l 1
 148.474 353.555 97 424.8 97 502 c 2
 97 513 l 1
 101.538 581.071 157.708 663.842 276 672 c 1
 277 715 l 2
 277 741 299 761 325 761 c 0
 351 761 371 739 371 713 c 2
 370 664 l 1
 429 649 483 618 525 574 c 0
 532 567 538 552 538 542 c 0
 538 517 517 496 492 496 c 0
 454.408 496 449.975 539.421 369 568 c 1
 366 374 l 1xe580
361 95 m 1
 426.953 104.422 458 144.2 458 177 c 0
 458 216.6 416.958 255.405 364 276 c 1
 361 95 l 1
275 580 m 1xe580
 196.826 570.228 188 516.4 188 502 c 0
 188 464.4 221.5 431.765 272 408 c 1
 275 580 l 1xe580
EndSplineSet
EndChar

StartChar: zero
Encoding: 48 48 61
Width: 315
VWidth: -1282
Flags: W
HStem: -3 86<114.179 178.8> 241.063 86.937<123.13 187.384>
VStem: 16 86<94.22 220.471> 197 86<98.6545 233.408>
LayerCount: 2
Fore
SplineSet
146 -3 m 0
 75.7534 -3 18.4387 58.7679 16 149 c 1
 16 154 l 2
 16 239.477 73.5992 328 162 328 c 1
 223.574 324.996 283 264.771 283 177 c 0
 283 175 283 173 283 171 c 0
 283 95.4472 238.224 0.193471 152 -3 c 0
 150 -3 148 -3 146 -3 c 0
147 83 m 0
 157 83 197 100.35 197 176 c 0
 197 230 163 241 155 241 c 0
 154.789 241.042 154.557 241.063 154.304 241.063 c 0
 143.843 241.063 102 210.961 102 156 c 0
 102 102.1 129 83 147 83 c 0
EndSplineSet
EndChar

StartChar: four
Encoding: 52 52 62
Width: 405
VWidth: -1282
Flags: W
HStem: -134.532 86.0474<115.752 209.237> 314.352 20G<230.346 254.08>
VStem: 40.6863 74.2087<-63.5176 -17.2993> 194.738 93.262<-226.657 -122.937> 214 78<247.204 327.266>
LayerCount: 2
Fore
SplineSet
210 -121 m 1xf0
 198.204 -124.37 174.044 -134.532 150.074 -134.532 c 0
 91.5601 -134.532 83.3015 -124.99 78 -120 c 0
 51.2683 -95.4959 40.6863 -77.6382 40.6863 -49.397 c 0
 40.6863 25.4522 113.521 59.9625 141 97 c 0
 219.01 199.974 199.091 231.344 214 288 c 0
 218.289 303.442 215.776 334.352 244.916 334.352 c 0
 263.244 334.352 287.071 318.538 292 298 c 0xe8
 296.374 280.193 298.21 262.972 298.21 246.428 c 0
 298.21 210.014 289.314 176.879 279 148 c 1
 250 78 226 49 185 14 c 1
 134.532 -17.5422 114.895 -34.2222 114.895 -42.1957 c 0
 114.895 -46.7776 121.38 -48.4846 132.225 -48.4846 c 0
 156.358 -48.4846 202.083 -40.0332 246 -36 c 1
 281.378 52.4457 281.118 92.8636 326.223 92.8636 c 0
 348.116 92.8636 364.667 78.7787 364.667 54.2222 c 0
 364.667 35.3778 357.569 24.4945 333 -40 c 1
 361.436 -48.1246 368.638 -67.2356 368.638 -82.1102 c 0
 368.638 -95.1424 359.89 -125.4 324.896 -125.4 c 0
 314.758 -125.4 309.464 -122.732 308 -122 c 1
 302 -142 297 -161 288 -197 c 0
 282.854 -218.441 262.997 -233.262 241.677 -233.262 c 0
 212.898 -233.262 194.738 -207.68 194.738 -185.677 c 0
 194.738 -179.38 202.705 -146.531 210 -121 c 1xf0
EndSplineSet
EndChar

StartChar: one
Encoding: 49 49 63
Width: 360
VWidth: 0
Flags: W
HStem: -17 21G<220 248.371> 160 175<139 208>
VStem: 92 187.144
LayerCount: 2
Fore
SplineSet
139 160 m 0
 113.818 160 92 181.873 92 207 c 0
 92 220 98 233 109 243 c 2
 138 267 l 1
 167 311 l 1
 175 327 191 335 208 335 c 0
 235.703 335 252.936 314.704 255 292 c 2
 279 34 l 2
 279.097 32.7416 279.144 31.4902 279.144 30.2479 c 0
 279.144 5.8228 260.742 -15.0968 236 -17 c 1
 232 -17 l 2
 208 -17 187 1 185 26 c 2
 172 173 l 1
 162.394 166.596 154.651 160 139 160 c 0
EndSplineSet
EndChar

StartChar: two
Encoding: 50 50 64
Width: 307
VWidth: 0
Flags: W
HStem: -4 110<186 256.995> -4 81<109.009 180> 244 86<103.444 166.106>
VStem: 18 91<41.5 110.187> 169 87<211.812 243.499>
LayerCount: 2
Fore
SplineSet
-12 70 m 2,0,-1
279 58 m 0,1,-1
 279 8.4 201.174 -2.7884 183 -4 c 1,4,-1
 142 -4 l 2,5,-1
 125 -4 98 0 84 0 c 0,8,-1
 71 0 62 -2 53 -2 c 0,11,-1
 43 -2 35 1 24 15 c 0,14,-1
 20 20 18 34 18 49 c 0,17,-1
 18 167.284 63.1942 178.229 125 202 c 0,20,-1
 154.279 212.787 169 226.8 169 233 c 0,23,-1
 169 239.6 154.7 244 147 244 c 0,26,-1
 102.244 244 101.292 198 63 198 c 0,29,-1
 39 198 19 217 19 241 c 0,32,-1
 19 271.3 73.7629 330 144 330 c 0,35,-1
 146 330 148 330 150 330 c 0,38,-1
 221.801 327.008 253.891 273.642 256 242 c 1,41,-1
 256 235 l 2,42,-1
 256 129.02 109 115.759 109 97 c 0,45,-1
 109 96 122 79 123 78 c 1,48,-1
 125 78 127 78 129 78 c 0,51,-1
 141 78 160 77 173 77 c 2,54,-1
 180 77 l 1,55,-1
 204 97 l 2,56,-1
 211 103 220 106 230 106 c 0,59,-1
 256.438 106 279 84.3188 279 58 c 0,1,-1
EndSplineSet
EndChar

StartChar: three
Encoding: 51 51 65
Width: 405
VWidth: -1282
Flags: W
HStem: -155.816 71.8416<110.125 211.365> 233.328 71.672<101.756 234.846> 254 71<101.906 239.999>
VStem: 33.4444 74.9486<-81.0688 -23.2957> 240 75<229.092 253.055> 250 75<-46.222 54.9683>
LayerCount: 2
Fore
SplineSet
146.227 233.328 m 0xd8
 91.5744 233.328 50 270.331 50 295 c 0
 50 315 67 331 88 331 c 0
 117.027 331 115.727 305 148 305 c 0
 149 305 150 305 151 305 c 0xd8
 168.228 306.723 197.672 325 236 325 c 0
 238 325 240 325 242 325 c 0
 279.021 322.822 315 295.107 315 251 c 0xb8
 315 179.259 233.92 154.112 210 145 c 1
 288.424 120.492 325 61 325 5 c 0
 325 -90.1669 226.514 -155.816 150.435 -155.816 c 0
 87.9491 -155.816 33.4444 -114.704 33.4444 -53.037 c 0
 33.4444 -4.88391 74.6339 29 99 29 c 0
 120 29 137 13 137 -7 c 0
 137 -33.0636 108.393 -36.6242 108.393 -54.3411 c 0
 108.393 -55.7923 108.585 -57.3386 109 -59 c 0
 112.784 -77.9195 131.981 -83.9744 148.097 -83.9744 c 0
 190.191 -83.9744 250 -45.8805 250 5 c 0xb4
 250 35 218.95 80 163 80 c 0
 120.4 80 113.3 62 92 62 c 0
 71 62 54 77 54 97 c 0
 54 130.205 118.356 182.98 169 206 c 0
 198.462 219.207 233.303 228.908 240 249 c 1
 240 253 l 1
 240 253 239 254 236 254 c 0xb8
 211.312 254 191.114 233.328 146.227 233.328 c 0xd8
EndSplineSet
EndChar

StartChar: five
Encoding: 53 53 66
Width: 405
VWidth: -1282
Flags: W
HStem: -212.219 77.255<111.49 214.061> -34 20G<89.3118 111.5> 41 74.85<135.407 228.441> 246.207 80.793<157.076 214>
VStem: 32.6759 77.6741<-131.887 -70.673> 58.0599 84.9401<105.342 244.983> 257 78<-95.4423 11.606>
LayerCount: 2
Fore
SplineSet
312.603 264.917 m 0xf6
 312.603 238.123 290.051 216.789 263.605 216.789 c 0
 254.473 216.789 245.47 219.651 238 226 c 2
 214 246 l 1
 211.95 246.146 209.513 246.207 206.814 246.207 c 0
 193.778 246.207 174.597 244.793 163.061 244.793 c 0
 160.672 244.793 158.611 244.854 157 245 c 0
 156.905 244.905 143 227.812 143 225 c 0xf6
 143.264 219.459 143.382 213.623 143.382 207.629 c 0
 143.382 163.814 137.058 111.585 135 105 c 1
 140.333 109 160.439 115.85 193.348 115.85 c 0
 212.891 115.85 234.625 112.687 254 103 c 1
 265.894 94.674 335 35.2923 335 -39 c 0
 335 -138.403 236.051 -212.219 153.846 -212.219 c 0
 85.2639 -212.219 32.6759 -164.383 32.6759 -104.204 c 0xfa
 32.6759 -48.1323 77.6235 -14 101 -14 c 0
 122 -14 140 -31 140 -52 c 0
 140 -64 131 -80 120 -86 c 0
 113.78 -89.1101 110.35 -95.9211 110.35 -103.503 c 0
 110.35 -117.853 122.638 -134.964 151.548 -134.964 c 0
 196.619 -134.964 257 -92.2374 257 -40 c 0
 257 8.04422 206.164 41 167 41 c 0
 118.9 41 115.2 21 93 21 c 0
 72 21 54 39 54 60 c 0
 54 75.5679 58.0599 184.543 58.0599 215.679 c 0
 58.0599 240.351 53.3259 267.26 53.3259 286.413 c 0
 53.3259 318.703 76.7962 325.311 87.2726 325.311 c 0
 95.6944 325.311 105.167 323 118 323 c 0
 132 323 159 327 176 327 c 2
 217 327 l 1
 235.989 325.734 312.603 314.583 312.603 264.917 c 0xf6
EndSplineSet
EndChar

StartChar: six
Encoding: 54 54 67
Width: 326
VWidth: -1282
Flags: W
HStem: -4.26218 87.2965<121.874 194.502> 592.286 20G<214.943 239.432>
VStem: 24.7422 86.4918<90.6517 234.138> 184 86.168<468.875 606.44> 207.936 86.671<93.9349 213.416>
LayerCount: 2
Fore
SplineSet
155.545 -4.26218 m 0xe8
 80.5241 -4.26218 24.7422 66.9091 24.7422 149.902 c 0
 24.7422 242.54 79.8685 310.34 116 374 c 5
 152 435 177 501 184 569 c 4
 186.807 592.395 203.626 612.286 226.26 612.286 c 0
 252.605 612.286 270.168 585.186 270.168 563.46 c 0xf0
 270.168 545.942 258.347 447.173 191 331 c 4
 190 329 188 327 187 325 c 5
 193 321 199 317 205 313 c 4
 259.327 274.195 294.607 215.976 294.607 151.294 c 0
 294.607 64.7109 232.029 -4.26218 155.545 -4.26218 c 0xe8
155.662 83.0343 m 0
 182.992 83.0343 207.936 110.621 207.936 150.98 c 0xe8
 207.936 199.705 166.199 238.4 143 250 c 5
 116.039 200.571 111.234 170.834 111.234 151.042 c 0
 111.234 113.632 130.388 83.0343 155.662 83.0343 c 0
EndSplineSet
EndChar

StartChar: seven
Encoding: 55 55 68
Width: 405
VWidth: -1282
Flags: W
HStem: 224.409 86.33<82.993 254.831> 250.752 84.885<187.086 277.307>
VStem: 64.0735 90.4055<-98.5597 55.6113>
LayerCount: 2
Fore
SplineSet
268.049 335.637 m 0x60
 331.275 335.637 364 293.098 364 244 c 0
 364 204.128 339.451 197.708 312 174 c 24
 267.902 137.053 187.006 113.475 158 8 c 16
 155.384 -1.67858 154.479 -10.3992 154.479 -18.6809 c 0
 154.479 -37.2953 159.052 -53.6924 159.052 -73.7663 c 0
 159.052 -108.938 152.706 -136.352 127.32 -136.352 c 0
 109.636 -136.352 87.3938 -120.538 80 -100 c 0
 69.3824 -69.2647 64.0735 -39.154 64.0735 -11.2384 c 0
 64.0735 70.057 118.605 154.85 196 192 c 1
 248.886 224.929 277.875 243.669 277.875 249.09 c 0
 277.875 250.201 276.659 250.752 274.182 250.752 c 0x60
 264.516 250.752 235.656 242.353 185 226 c 1
 175.581 224.93 167.262 224.409 159.602 224.409 c 0
 130.005 224.409 68.0847 240.831 57 263 c 0
 53.1534 269.732 51.3618 276.977 51.3618 284.11 c 0
 51.3618 305.539 67.0042 326.788 93.1352 326.788 c 0
 108.862 326.788 142.286 310.739 170.93 310.739 c 0xa0
 192.601 310.739 226.091 335.637 268.049 335.637 c 0x60
EndSplineSet
EndChar

StartChar: eight
Encoding: 56 56 69
Width: 350
VWidth: -1282
Flags: W
HStem: -244.405 80.317<139.157 213.852> 253.086 80.94<131.423 205.671>
VStem: 36.4279 86.8171<-149.077 -30.6715 135.129 230.107> 220.966 86.478<-142.335 -43.5853 117.766 239.01>
LayerCount: 2
Fore
SplineSet
169 -7 m 1
 166 -10 163 -13 160 -16 c 0
 143.302 -32.6983 123.245 -60.5054 123.245 -93.1506 c 0
 123.245 -134.337 153.92 -164.088 181.201 -164.088 c 0
 198.2 -164.088 213.881 -152.536 220 -125 c 0
 220.633 -120.567 220.966 -115.934 220.966 -111.195 c 0
 220.966 -90.356 217.266 -61.2994 169 -7 c 1
177 97 m 1
 184.593 104.593 222.755 135.673 222.755 182.226 c 0
 222.755 223.676 192.221 253.086 164.995 253.086 c 0
 147.9 253.086 132.109 241.491 126 214 c 0
 125.367 209.567 125.034 205.034 125.034 200.433 c 0
 125.034 155.842 158.041 118.329 177 97 c 1
238 38 m 1
 261.948 20.0388 307.444 -42.7772 307.444 -110.111 c 0
 307.444 -193.248 248.381 -244.405 183.039 -244.405 c 0
 101.808 -244.405 36.4279 -176.177 36.4279 -93.5391 c 0
 36.4279 -35.3235 68.6756 18.1405 111 52 c 1
 76.4225 72.7465 38.5556 140.702 38.5556 199.37 c 0
 38.5556 283.722 98.2704 334.026 165.093 334.026 c 0
 243.755 334.026 309.572 266.711 309.572 182.619 c 0
 309.572 102.593 247.906 45.9249 238 38 c 1
EndSplineSet
EndChar

StartChar: nine
Encoding: 57 57 70
Width: 326
VWidth: -1282
Flags: W
HStem: 245.966 86.296<116.426 188.897>
VStem: 16.3927 86.6713<113.759 234.561> 40.6573 86.3427<-234.242 -129.963> 199.766 86.492<93.9699 236.342>
LayerCount: 2
Fore
SplineSet
155.703 332.262 m 0xd0
 229.344 332.262 286.258 264.6 286.258 178.278 c 0
 286.258 88.5668 229.773 15.2669 195 -46 c 1
 159 -107 146 -134 127 -197 c 0
 120.432 -219.518 106.822 -240.275 84.5176 -240.275 c 0
 57.6004 -240.275 40.6573 -211.204 40.6573 -192.749 c 0xb0
 40.6573 -125.405 122.626 1.25131 124 4 c 0
 123.423 4.38488 16.3927 60.8342 16.3927 177.706 c 0
 16.3927 271.149 86.4248 332.262 155.703 332.262 c 0xd0
155.338 245.966 m 0
 126.231 245.966 103.064 214.823 103.064 177.02 c 0xd0
 103.064 128.295 144.801 89.5997 168 78 c 1
 183.429 106.287 199.766 136.853 199.766 177.124 c 0
 199.766 224.399 173.109 245.966 155.338 245.966 c 0
EndSplineSet
EndChar

StartChar: bar
Encoding: 124 124 71
Width: 285
VWidth: 0
Flags: W
VStem: 95 94<-222.782 722.782>
LayerCount: 2
Fore
SplineSet
189 -182 m 2
 189 -208 168 -229 142 -229 c 0
 116 -229 95 -208 95 -182 c 2
 95 682 l 2
 95 708 116 729 142 729 c 0
 168 729 189 708 189 682 c 2
 189 -182 l 2
EndSplineSet
EndChar

StartChar: numbersign
Encoding: 35 35 72
Width: 657
VWidth: 0
Flags: W
HStem: -19 21G<199 225 419 445> 195 94<49.2177 165 259 385 479 593.782> 445 94<49.2177 165 259 385 479 593.782>
VStem: 165 94<-12.7823 195 289 445 539 722.782> 385 94<-12.7823 195 289 445 539 722.782>
LayerCount: 2
Fore
SplineSet
259 28 m 2
 259 2 238 -19 212 -19 c 0
 186 -19 165 2 165 28 c 2
 165 195 l 1
 90 195 l 2
 64 195 43 216 43 242 c 0
 43 268 64 289 90 289 c 2
 165 289 l 1
 165 445 l 1
 90 445 l 2
 64 445 43 466 43 492 c 0
 43 518 64 539 90 539 c 2
 165 539 l 1
 165 682 l 2
 165 708 186 729 212 729 c 0
 238 729 259 708 259 682 c 2
 259 539 l 1
 385 539 l 1
 385 682 l 2
 385 708 406 729 432 729 c 0
 458 729 479 708 479 682 c 2
 479 539 l 1
 553 539 l 2
 579 539 600 518 600 492 c 0
 600 466 579 445 553 445 c 2
 479 445 l 1
 479 289 l 1
 553 289 l 2
 579 289 600 268 600 242 c 0
 600 216 579 195 553 195 c 2
 479 195 l 1
 479 28 l 2
 479 2 458 -19 432 -19 c 0
 406 -19 385 2 385 28 c 2
 385 195 l 1
 259 195 l 1
 259 28 l 2
259 445 m 1
 259 289 l 1
 385 289 l 1
 385 445 l 1
 259 445 l 1
EndSplineSet
EndChar

StartChar: period
Encoding: 46 46 73
Width: 340
VWidth: 0
Flags: W
HStem: -24 138<58.8621 163.138>
VStem: 42 138<-7.13791 97.1379>
LayerCount: 2
Fore
SplineSet
42 45 m 0
 42 83 73 114 111 114 c 0
 149 114 180 83 180 45 c 0
 180 7 149 -24 111 -24 c 0
 73 -24 42 7 42 45 c 0
EndSplineSet
EndChar

StartChar: colon
Encoding: 58 58 74
Width: 340
VWidth: 0
Flags: W
HStem: -24 138<58.8621 163.138> 235 138<58.8621 163.138>
VStem: 42 138<-7.13791 97.1379 251.862 356.138>
LayerCount: 2
Fore
SplineSet
42 304 m 0
 42 342 73 373 111 373 c 0
 149 373 180 342 180 304 c 0
 180 266 149 235 111 235 c 0
 73 235 42 266 42 304 c 0
42 45 m 0
 42 83 73 114 111 114 c 0
 149 114 180 83 180 45 c 0
 180 7 149 -24 111 -24 c 0
 73 -24 42 7 42 45 c 0
EndSplineSet
EndChar

StartChar: parenright
Encoding: 41 41 75
Width: 397
VWidth: -1282
Flags: W
HStem: 690 20G<87.5 115.946>
VStem: 113 92<-35.6326 460.053>
LayerCount: 2
Fore
SplineSet
105 76 m 17
 105 112 113 150 113 189 c 0
 113 583.376 98.8607 600.139 68 631 c 0
 60 638 54 653 54 664 c 0
 54 689 75 710 100 710 c 0
 131.892 710 160.482 667.391 175 634 c 0
 201.391 575.939 203.048 421.61 205 324 c 1
 205 186 l 2
 205 148 197 111 197 75 c 2
 197 61 l 2
 197 3.29274 194.207 -73.7926 133 -135 c 0
 126 -143 111 -149 100 -149 c 0
 75 -149 54 -128 54 -103 c 0
 54 -73.3824 79.5903 -66.6652 91 -37 c 0
 103 -8 99 32 105 76 c 17
EndSplineSet
EndChar

StartChar: parenleft
Encoding: 40 40 76
Width: 397
VWidth: -1282
Flags: W
HStem: 690 20G<290.5 308.5>
VStem: 191 92<-40.8928 595.159>
LayerCount: 2
Fore
SplineSet
291 76 m 9
 300.52 6.18489 286.28 -28.2796 328 -70 c 0
 336 -77 342 -92 342 -103 c 0
 342 -128 321 -149 296 -149 c 0
 264.108 -149 235.518 -106.391 221 -73 c 0
 200 -25 199 11 199 61 c 2
 199 75 l 2
 199 111 191 148 191 186 c 2
 191 324 l 1
 195.73 560.516 200.565 633.565 263 696 c 0
 270 704 285 710 296 710 c 0
 321 710 342 689 342 664 c 0
 342 613.568 293.586 655.971 288 480 c 1
 285.47 363.612 283 334.496 283 189 c 0
 283 150 291 112 291 76 c 9
EndSplineSet
EndChar

StartChar: plus
Encoding: 43 43 77
Width: 498
VWidth: 0
Flags: W
HStem: -1 21G<234 260> 114 94<94.332 201 297 405.479>
VStem: 201 94<5.52118 115 210 317.301>
LayerCount: 2
Fore
SplineSet
366 208 m 2
 392 208 412 186 412 160 c 0
 412 134 390 114 364 114 c 2
 295 115 l 1
 295 45 l 2
 295 19 273 -1 247 -1 c 0
 221 -1 201 20 201 46 c 2
 201 116 l 1
 132 117 l 2
 106 117 86 139 86 165 c 0
 86 191 108 211 134 211 c 2
 203 210 l 1
 204 279 l 2
 204 305 225 325 251 325 c 0
 277 325 297 304 297 278 c 2
 297 209 l 1
 366 208 l 2
EndSplineSet
EndChar

StartChar: hyphen
Encoding: 45 45 78
Width: 498
VWidth: 0
Flags: W
HStem: 114 95<94.332 404.901>
VStem: 86 326<122.964 202.036>
LayerCount: 2
Fore
SplineSet
297 209 m 1
 366 208 l 2
 392 208 412 186 412 160 c 0
 412 134 390 114 364 114 c 2
 201 116 l 1
 132 117 l 2
 106 117 86 139 86 165 c 0
 86 191 108 211 134 211 c 2
 297 209 l 1
EndSplineSet
EndChar

StartChar: comma
Encoding: 44 44 79
Width: 340
VWidth: 0
Flags: W
HStem: -131 245<58.8621 85.5>
VStem: 42 138<-12.6587 97.1379>
LayerCount: 2
Fore
SplineSet
42 45 m 0
 42 83 73 114 111 114 c 0
 149 114 180 83 180 45 c 0
 180 7 87 -131 49 -131 c 0
 35 -131 30 -111 30 -84 c 0
 30 -41 42 21 42 45 c 0
EndSplineSet
EndChar

StartChar: semicolon
Encoding: 59 59 80
Width: 340
VWidth: 0
Flags: W
HStem: 235 138<58.8621 163.138>
VStem: 42 138<-12.6587 97.1379 251.862 356.138>
LayerCount: 2
Fore
SplineSet
42 45 m 0
 42 83 73 114 111 114 c 0
 149 114 180 83 180 45 c 0
 180 7 87 -131 49 -131 c 0
 34.56 -131 30.0836 -111.073 30.0836 -84.2779 c 0
 30.0836 -40.56 42 21.44 42 45 c 0
42 304 m 0
 42 342 73 373 111 373 c 0
 149 373 180 342 180 304 c 0
 180 266 149 235 111 235 c 0
 73 235 42 266 42 304 c 0
EndSplineSet
EndChar

StartChar: quotesingle
Encoding: 39 39 81
Width: 107
VWidth: 0
Flags: W
HStem: 481 243<29.6108 78.5312>
VStem: 3.4375 108<522.833 713.986>
LayerCount: 2
Fore
SplineSet
3.4375 655 m 0
 3.4375 693 21.4375 724 59.4375 724 c 0
 97.4375 724 111.438 693 111.438 655 c 4
 111.438 617 91.4375 481 53.4375 481 c 0
 15.4375 481 3.4375 617 3.4375 655 c 0
EndSplineSet
EndChar

StartChar: quotedbl
Encoding: 34 34 82
Width: 388
VWidth: 0
Flags: W
HStem: 478 243
VStem: 42 138<553.75 707.138> 217 138<550.75 704.138>
LayerCount: 2
Fore
SplineSet
217 652 m 4
 217 690 248 721 286 721 c 4
 324 721 355 690 355 652 c 4
 355 614 318 478 280 478 c 4
 242 478 217 614 217 652 c 4
42 655 m 4
 42 693 73 724 111 724 c 4
 149 724 180 693 180 655 c 4
 180 617 143 481 105 481 c 4
 67 481 42 617 42 655 c 4
EndSplineSet
EndChar

StartChar: exclam
Encoding: 33 33 83
Width: 235
VWidth: 0
Flags: W
HStem: -24 138<58.8621 163.138> 704 20G<98 136>
VStem: 42 138<-7.13791 97.1379 402.75 701.351>
LayerCount: 2
Fore
SplineSet
42 45 m 0
 42 83 73 114 111 114 c 0
 149 114 180 83 180 45 c 0
 180 7 149 -24 111 -24 c 0
 73 -24 42 7 42 45 c 0
48 655 m 0
 48 693 79 724 117 724 c 0
 155 724 186 693 186 655 c 0
 186 617 149 179 111 179 c 0
 73 179 48 617 48 655 c 0
EndSplineSet
EndChar

StartChar: asciitilde
Encoding: 126 126 84
Width: 455
VWidth: -1282
Flags: W
HStem: 354.274 91.896<243.141 351.754> 402.854 91.146<119.511 218.804>
LayerCount: 2
Fore
SplineSet
35 405 m 0x40
 35 435.619 83.9504 494 155 494 c 0x40
 229.027 494 265.648 446.17 303.542 446.17 c 0
 308.641 446.17 313.762 447.036 319 449 c 0
 341.802 457.551 352.108 478 376 478 c 0
 401 478 422 457 422 432 c 0
 422 391.891 356.439 354.274 302.662 354.274 c 0x80
 239.351 354.274 194.402 402.854 157.477 402.854 c 0
 151.096 402.854 144.955 401.403 139 398 c 0
 132 394 124 388 120 381 c 0
 113 369 95 359 81 359 c 0
 56 359 35 380 35 405 c 0x40
EndSplineSet
EndChar

StartChar: braceleft
Encoding: 123 123 85
Width: 397
VWidth: -1282
Flags: W
HStem: 690 20G<290.5 308.5>
VStem: 115 108.991<286.857 368.696> 202.541 92.459<-59.7054 178.768> 213.935 89.093<475.692 597.828> 218 93.321<52.5491 229.063 429.85 573.458>
LayerCount: 2
Fore
SplineSet
223.991 320.214 m 0xc0
 223.991 278.232 311.321 277.44 311.321 180.455 c 0x88
 311.321 144.45 295 109.366 295 76 c 9
 301.45 5.04667 285.642 -27.6421 328 -70 c 0
 336 -77 342 -92 342 -103 c 0
 342 -128 321 -149 296 -149 c 0
 264.108 -149 235.518 -106.391 221 -73 c 0
 204.97 -36.7576 202.541 -7.31589 202.541 26.8363 c 0xa0
 202.541 41.685 203 57.4242 203 75 c 0
 203 111 218 148 218 186 c 0x88
 218 232 115 279 115 324 c 0xc0
 116 374 211 422 213 465 c 0
 213.766 486.195 213.935 504.873 213.935 521.554 c 0
 213.935 534.778 213.829 546.748 213.829 557.724 c 0
 213.829 619.997 217.256 650.256 263 696 c 0
 270 704 285 710 296 710 c 0
 321 710 342 689 342 664 c 0
 342 634.382 316.41 627.665 305 598 c 0
 303.562 594.404 303.028 586.282 303.028 574.424 c 0x90
 303.028 554.576 306.078 485.108 306.078 475.184 c 0
 306.078 386.076 223.991 378.328 223.991 320.214 c 0xc0
EndSplineSet
EndChar

StartChar: braceright
Encoding: 125 125 86
Width: 397
VWidth: -1282
Flags: W
HStem: 690 20G<148.5 176.946>
VStem: 115 121<620.699 675.361> 145.679 93.321<52.5491 229.056 429.85 573.458> 162 92.459<-35.6326 178.768> 233.009 108.991<286.86 368.696>
LayerCount: 2
Fore
SplineSet
145.679 180.455 m 0xa0
 145.679 277.395 233.009 278.266 233.009 320.214 c 0x88
 233.009 378.328 150.922 386.076 150.922 475.184 c 0
 150.922 485.108 153.972 554.576 153.972 574.424 c 0
 153.972 586.282 153.438 594.404 152 598 c 0
 140.525 627.836 115 634.265 115 664 c 0
 115 689 136 710 161 710 c 0
 192.892 710 221.482 667.391 236 634 c 0xc0
 246 612 241 548 244 465 c 0
 246 422 341 374 342 324 c 0x88
 342 279 239 232 239 186 c 0xa0
 239 148 254 111 254 75 c 0
 254 57.4242 254.459 41.685 254.459 26.8363 c 0x90
 254.459 -28.8109 242.482 -86.5178 194 -135 c 0
 187 -143 172 -149 161 -149 c 0
 136 -149 115 -128 115 -103 c 0xc0
 115 -73.3824 140.59 -66.6652 152 -37 c 0
 164 -8 158 32 162 76 c 17x90
 162 109.366 145.679 144.45 145.679 180.455 c 0xa0
EndSplineSet
EndChar

StartChar: equal
Encoding: 61 61 87
Width: 498
VWidth: 0
Flags: W
HStem: 54 95<94.332 404.901> 204 95<94.332 404.901>
VStem: 86 326<62.9637 142.036 212.964 292.036>
LayerCount: 2
Fore
SplineSet
297 149 m 1
 366 148 l 2
 392 148 412 126 412 100 c 0
 412 74 390 54 364 54 c 2
 201 56 l 1
 132 57 l 2
 106 57 86 79 86 105 c 0
 86 131 108 151 134 151 c 2
 297 149 l 1
297 299 m 1
 366 298 l 2
 392 298 412 276 412 250 c 0
 412 224 390 204 364 204 c 2
 201 206 l 1
 132 207 l 2
 106 207 86 229 86 255 c 0
 86 281 108 301 134 301 c 2
 297 299 l 1
EndSplineSet
EndChar

StartChar: ampersand
Encoding: 38 38 88
Width: 727
VWidth: -1282
Flags: W
HStem: -1 92<216.829 422.805> 56 87<531.073 566.565> 341 89<266.411 393.125 394.397 478.726> 351 89<342.228 478.203 568.327 662.116> 548 20G<492 504> 635 91<227.457 367.64>
VStem: 71 92.988<135.011 280.461> 110 92<488.53 609.475> 445 84.488<143.007 263.237> 563 102<143.005 181.512>
LayerCount: 2
Fore
SplineSet
110 553 m 0x8dc0
 110 639.638 176.475 726 291 726 c 0
 378.983 726 410.581 705.922 479 620 c 0
 485 613 490 600 490 591 c 0
 490 581 487 572 482 565 c 1
 486 566 490 568 494 568 c 2
 496 568 l 2
 512 568 529 556 535 542 c 0
 550 508 561 473 566 437 c 1
 616.512 443.735 610.8 446 622 446 c 0
 646 446 682 427 682 403 c 0
 682 392.4 670.916 359.706 569 350 c 1
 563.173 259.679 529.488 216.547 529.488 176.375 c 0
 529.488 173.574 529.652 170.787 530 168 c 1
 542 153 536 143 550 143 c 0
 558.9 143 563 149.6 563 154 c 0
 565 175 585 192 606 192 c 0
 630 192 665 173 665 149 c 2
 665 144 l 1
 662 119 635 97 616 81 c 0
 598 66 575 56 551 56 c 0
 550 56 549 56 548 56 c 0x4dc0
 528 57 511 63 495 73 c 1
 461.199 44.3993 411.671 -1 310 -1 c 0
 196 -1 115 71 104 88 c 0
 82 122 71 165 71 206 c 0x8ec0
 71 296.011 122.471 365.893 182 401 c 1
 112.954 463.769 110 534.264 110 553 c 0x8dc0
299 341 m 0x2ec0
 227.034 341 164 283.957 164 207 c 0
 164 204.444 163.988 201.852 163.988 199.24 c 0
 163.988 178.346 164.778 156.222 179 142 c 0
 218 103 274 91 327 91 c 0
 342 91 358 93 373 96 c 0
 412 105 418 105 448 132 c 1
 446 144 445 162 445 179 c 0
 445 254.187 473.88 261.735 482 347 c 1
 411 350 415 351 405 351 c 2
 389 351 l 1x9ec0
 361 350 366 344 316 340 c 1
 316 340 309 341 299 341 c 0x2ec0
341 430 m 0x2dc0
 367.478 430 375.167 441 394 441 c 0
 403 441 377 440 421 440 c 2
 428 440 l 1x1dc0
 445 437 462 435 479 434 c 1
 471.53 480.685 453 506.8 453 525 c 0
 453 534 456 541 460 548 c 1
 455 546 450 545 444 545 c 0
 388.329 545 399.476 635 295 635 c 0
 227.556 635 202 588.414 202 551 c 0
 202 479.793 284.195 430 341 430 c 0x2dc0
EndSplineSet
EndChar

StartChar: asterisk
Encoding: 42 42 89
Width: 498
VWidth: 0
Flags: W
HStem: 116 96<92.3243 175.312 322.688 404.027>
VStem: 142 88<22.1777 62.9556 265.44 302.469> 265 89<21.2169 53.7588 268.767 304>
LayerCount: 2
Fore
SplineSet
192 15 m 0
 162 15 142 39.6 142 64 c 0
 142 72 144 80 149 87 c 2
 176 127 l 1
 132 117 l 2
 130 116 127 116 125 116 c 0
 103 116 86 141 86 165 c 0
 86 188 104 212 126 212 c 0
 129 212 131 212 134 211 c 2
 177 199 l 1
 151 241 l 2
 146 248 144 256 144 264 c 0
 144 292.8 171 312 195 312 c 0
 212 312 228 303 233 287 c 2
 250 231 l 1
 268 286 l 2
 273 302 289 310 306 310 c 0
 336 310 356 285.4 356 261 c 0
 356 253 354 245 349 238 c 2
 322 197 l 1
 366 208 l 2
 368 209 371 209 373 209 c 0
 395 209 412 184 412 160 c 0
 412 137 394 113 372 113 c 0
 369 113 367 113 364 114 c 2
 320 126 l 1
 347 84 l 2
 352 77 354 69 354 61 c 0
 354 32.2 327 13 303 13 c 0
 286 13 270 22 265 38 c 2
 248 95 l 1
 230 39 l 2
 225 23 209 15 192 15 c 0
EndSplineSet
EndChar

StartChar: slash
Encoding: 47 47 90
Width: 492
VWidth: 0
Flags: W
HStem: 673 20G<409 430.925>
LayerCount: 2
Fore
SplineSet
418 693 m 0
 443.85 693 465 674.2 465 646 c 0
 465 640 464 633 461 627 c 2
 117 -165 l 2
 110 -183 92 -193 74 -193 c 0
 48.15 -193 27 -174.2 27 -146 c 0
 27 -140 28 -133 31 -127 c 2
 375 665 l 2
 382 683 400 693 418 693 c 0
EndSplineSet
EndChar

StartChar: question
Encoding: 63 63 92
Width: 486
VWidth: -1282
Flags: W
HStem: -23.5964 138.192<178.435 282.565> 507.617 21G<38.917 61.1405> 640.328 96.652<157.31 311.081>
VStem: 5.67328 90.3267<513.481 583.249> 161.404 138.192<-6.56533 97.5651> 322.977 120.361<491.341 627.625>
LayerCount: 2
Fore
SplineSet
161.404 44.9431 m 0
 161.404 83.2752 191.451 114.596 229.943 114.596 c 0
 268.275 114.596 299.596 84.5492 299.596 46.0569 c 0
 299.596 7.72479 269.549 -23.5964 231.057 -23.5964 c 0
 192.725 -23.5964 161.404 6.45031 161.404 44.9431 c 0
247.599 177.987 m 0
 226.763 177.987 225.995 232.442 225.995 271.188 c 0
 225.995 273.875 225.999 276.487 226 279 c 8
 226.02 331.673 246 368 266 408 c 0
 305.104 489.214 322.977 515.674 322.977 576.891 c 0
 322.977 608.565 312.553 640.328 236.907 640.328 c 0
 171.889 640.328 109.169 592.678 96 540 c 0
 90.516 521.72 70.8305 507.617 51.4506 507.617 c 0
 26.3833 507.617 5.67328 529.15 5.67328 553.548 c 0
 5.67328 555.35 5.78035 557.17 6 559 c 0
 6 568.123 37.4289 671.207 144 713 c 0
 180.429 727.286 219.408 736.98 257.294 736.98 c 0
 312.174 736.98 427.011 707.923 441 610 c 0
 442.568 599.024 443.338 588.812 443.338 579.099 c 0
 443.338 495.89 386.815 449.197 291 271 c 0
 272.159 236.293 271.018 177.987 247.599 177.987 c 0
EndSplineSet
EndChar

StartChar: percent
Encoding: 37 37 93
Width: 789
VWidth: 0
Flags: W
HStem: -111 94<542.877 657.123> 147 94<542.877 657.123> 306 94<137.877 252.123> 564 94<137.877 252.123> 673 20G<544 565.925>
VStem: 19 94<424.877 539.123> 277 94<424.877 539.123> 424 94<7.87744 122.123> 682 94<7.87744 122.123>
LayerCount: 2
Fore
SplineSet
600 241 m 0
 697 241 776 162 776 65 c 0
 776 -32 697 -111 600 -111 c 0
 503 -111 424 -32 424 65 c 0
 424 162 503 241 600 241 c 0
518 65 m 0
 518 20 555 -17 600 -17 c 0
 645 -17 682 20 682 65 c 0
 682 110 645 147 600 147 c 0
 555 147 518 110 518 65 c 0
195 658 m 4
 292 658 371 579 371 482 c 4
 371 385 292 306 195 306 c 4
 98 306 19 385 19 482 c 4
 19 579 98 658 195 658 c 4
113 482 m 4
 113 437 150 400 195 400 c 4
 240 400 277 437 277 482 c 4
 277 527 240 564 195 564 c 4
 150 564 113 527 113 482 c 4
553 693 m 0
 578.85 693 600 674.2 600 646 c 0
 600 640 599 633 596 627 c 2
 252 -165 l 2
 245 -183 227 -193 209 -193 c 0
 183.15 -193 162 -174.2 162 -146 c 0
 162 -140 163 -133 166 -127 c 2
 510 665 l 2
 517 683 535 693 553 693 c 0
EndSplineSet
EndChar

StartChar: less
Encoding: 60 60 94
Width: 430
VWidth: 0
Flags: W
HStem: 75 340<283 316.021>
VStem: 53 283
LayerCount: 2
Fore
SplineSet
291 415 m 0
 316.021 415 336 395.845 336 370 c 0
 336 355 329 341 316 332 c 2
 182 244 l 1
 316 158 l 2
 329 149 336 135 336 120 c 0
 336 95.0659 317.142 75 291 75 c 0
 283 75 274 77 266 82 c 2
 74 206 l 2
 60 215 53 228 53 244 c 0
 53 260 61 273 74 282 c 2
 266 408 l 2
 274 413 282 415 291 415 c 0
EndSplineSet
EndChar

StartChar: greater
Encoding: 62 62 95
Width: 430
VWidth: 0
Flags: W
HStem: 75 340<116.598 150>
VStem: 96 283
LayerCount: 2
Fore
SplineSet
142 75 m 0
 116.598 75 96 95.6177 96 120 c 0
 96 135 104 149 117 158 c 6
 250 244 l 5
 117 332 l 6
 104 341 96 355 96 370 c 0
 96 392.6 114.4 415 142 415 c 0
 151 415 159 413 167 408 c 6
 359 282 l 6
 372 273 379 260 379 244 c 0
 379 228 372 215 358 206 c 6
 166 82 l 6
 158 77 150 75 142 75 c 0
EndSplineSet
EndChar

StartChar: at
Encoding: 64 64 96
Width: 954
VWidth: 0
Flags: W
HStem: -173.5 91<346.029 597.971> 88.6758 86.3242<385.314 440.619> 333 86.444<411.222 492.577> 594.5 91<346.029 597.971>
VStem: 26.5 91<139.09 372.91> 294.904 86.096<176.031 300.26> 826.5 91<139.09 372.91>
LayerCount: 2
Fore
SplineSet
472 685.5 m 4
 716.531 685.5 917.5 494.491 917.5 256 c 4
 917.5 17.502 716.532 -173.5 472 -173.5 c 4
 227.469 -173.5 26.5 17.5088 26.5 256 c 4
 26.5 494.498 227.468 685.5 472 685.5 c 4
117.5 256 m 4
 117.5 70.5557 274.932 -82.5 472 -82.5 c 4
 669.067 -82.5 826.5 70.5625 826.5 256 c 4
 826.5 441.444 669.068 594.5 472 594.5 c 4
 274.933 594.5 117.5 441.438 117.5 256 c 4
294.904 223.57 m 0
 294.904 284.977 335.166 419 458 419 c 0
 461.333 419 464.667 419.444 468 419.444 c 0
 473.571 418.949 492.653 418.173 523 403 c 1
 530 410 543 415 553 415 c 0
 577 415 597 396 597 372 c 0
 597 354.746 574 318.229 574 245 c 0
 574 234 574 224 575 213 c 1
 578 214 583 215 586 215 c 0
 610 215 629 196 629 172 c 0
 629 166 626 156 623 150 c 2
 610 127 l 2
 607 122 601 115 596 112 c 2
 570 96 l 2
 564 92 554 89 547 89 c 0
 538.745 89 510.308 92.4615 502 134 c 1
 498.008 130.008 466.352 88.6758 412.88 88.6758 c 0
 344.762 88.6758 294.904 145.962 294.904 223.57 c 0
381 221 m 0
 381 197.135 393.506 178.624 408 175 c 1
 435.079 175 458.369 212.26 493 320 c 1
 484 327 473 332 463 333 c 1
 452 333 l 1
 403.867 328.989 381 259.961 381 221 c 0
EndSplineSet
EndChar

StartChar: dotlessi
Encoding: 305 305 98
Width: 214
VWidth: -1282
Flags: W
HStem: -4.49546 326.495
VStem: 28.5 126.5<12.4037 93.5778> 52.5 87.514<83.9442 287.832>
LayerCount: 2
Fore
SplineSet
52.5 200.991 m 0xa0
 52.5 244.173 36 255.866 36 279 c 0
 36 303 55 322 79 322 c 2
 81 322 l 1
 134.454 318.436 140.014 217.051 140.014 200.492 c 0xa0
 140.014 159.495 127.936 128.423 120 98 c 1
 139 94 155 74 155 55 c 2
 155 51 l 1
 153.298 22.0704 128.58 -4.49546 96.2229 -4.49546 c 0
 55.5892 -4.49546 28.5 28.9819 28.5 66.5 c 0xc0
 28.5 108.092 52.5 166.425 52.5 200.991 c 0xa0
EndSplineSet
EndChar

StartChar: dieresis
Encoding: 168 168 99
Width: 296
VWidth: -1282
Flags: W
HStem: 449 93<24.93 103.818 184.93 263.818>
VStem: 19 91<454.965 535.782> 179 91<454.965 535.782>
LayerCount: 2
Fore
SplineSet
270 495 m 4
 270 469 249 449 224 449 c 4
 199 449 179 469 179 495 c 4
 179 521 199 542 224 542 c 4
 249 542 270 521 270 495 c 4
110 495 m 0
 110 469 89 449 64 449 c 0
 39 449 19 469 19 495 c 0
 19 521 39 542 64 542 c 0
 89 542 110 521 110 495 c 0
EndSplineSet
EndChar

StartChar: acute
Encoding: 180 180 100
Width: 379
VWidth: -1282
Flags: W
HStem: 427.278 92.7217<90.9439 147.6>
VStem: 84.2783 211.178<474.491 541.046>
LayerCount: 2
Fore
SplineSet
295.456 541.046 m 4
 295.456 534.4 294.02 527.587 291 521 c 6
 273 482 l 6
 267 469 257 460 243 456 c 6
 144 429 l 6
 139.833 427.833 135.639 427.278 131.509 427.278 c 4
 107.305 427.278 84.2783 448.072 84.2783 474.491 c 4
 84.2783 495.139 98.167 514.167 119 520 c 6
 197 541 l 5
 206 560 l 6
 213.981 577.413 230.384 587.456 247.954 587.456 c 4
 275.559 587.456 295.456 564.542 295.456 541.046 c 4
EndSplineSet
EndChar

StartChar: Euro
Encoding: 8364 8364 216
Width: 717
VWidth: -1282
Flags: W
HStem: 0.073249 92.1768<269.031 466> 211.245 94.4569<8.09924 63.6512 177.543 319.901> 374.627 93.7969<21.0992 67.4676 190.455 332.901> 456 21G<561.598 606.5> 611.103 92.128<305.917 480.729>
VStem: 63.4785 91.0395<306.82 374.627> 569 88<185.127 249.818>
LayerCount: 2
Fore
SplineSet
225 468 m 1xee
 294 467 l 2
 320 467 340 445 340 419 c 0
 340 393 318 373 292 373 c 2
 159.401 374.627 l 1xee
 156.196 356.167 154.518 337.302 154.518 318.298 c 0
 154.518 314.067 154.613 309.868 154.803 305.702 c 1
 212 305 l 1
 281 304 l 2
 307 304 327 282 327 256 c 0
 327 230 305 210 279 210 c 2
 177.543 211.245 l 1
 211.184 139.785 279.416 92.25 367.06 92.25 c 0
 469.813 92.25 544.387 163.71 569 227 c 0
 575 243 594 256 611 256 c 0
 636 256 657 235 657 210 c 0
 657 173.486 564.385 0.073249 365.19 0.073249 c 0
 233.104 0.073249 119.337 82.7303 79.0521 212.535 c 1
 47 213 l 2
 21 213 1 235 1 261 c 0
 1 287 23 307 49 307 c 2
 63.6512 306.82 l 1
 63.5364 310.662 63.4785 314.53 63.4785 318.423 c 0
 63.4785 337.521 64.8243 356.753 67.4676 375.892 c 1
 60 376 l 2
 34 376 14 398 14 424 c 0
 14 450 36 470 62 470 c 2
 91.2362 469.641 l 1
 135.7 588.06 231.742 686.286 366 701 c 0
 373 702 379 703 386 703 c 0
 389.626 703.154 393.252 703.231 396.876 703.231 c 0
 535.691 703.231 626.186 598.698 639 509 c 0
 639 507 640 504 640 502 c 0
 640 477 619 456 594 456 c 0xde
 529.195 456 569.238 541.806 477 591 c 0
 452.548 604.041 424.11 611.103 395.476 611.103 c 0
 307.764 611.103 232.54 551.446 190.455 468.424 c 1
 225 468 l 1xee
EndSplineSet
EndChar

StartChar: multiply
Encoding: 215 215 217
Width: 498
VWidth: 0
Flags: W
HStem: 31.887 258.473
VStem: 118.518 260.257
LayerCount: 2
Fore
SplineSet
299.205 277.259 m 2
 308.044 286.098 319.499 290.36 331.053 290.36 c 0
 343.532 290.36 356.127 285.389 365.673 275.844 c 0
 374.512 267.004 378.775 255.55 378.775 243.995 c 0
 378.775 231.516 373.804 218.921 364.259 209.376 c 2
 314.761 161.293 l 1
 364.259 111.796 l 2
 373.098 102.956 377.36 91.5017 377.36 79.9468 c 0
 377.36 67.4683 372.389 54.8728 362.844 45.3271 c 0
 353.828 36.3115 342.262 31.887 330.646 31.887 c 0
 318.576 31.887 306.452 36.6651 297.083 46.0342 c 2
 247.586 95.5322 l 1
 198.088 47.4482 l 2
 189.249 38.6091 177.794 34.3468 166.24 34.3468 c 0
 153.761 34.3468 141.166 39.3177 131.62 48.8633 c 0
 122.781 57.7027 118.518 69.1574 118.518 80.7125 c 0
 118.518 93.1905 123.489 105.786 133.034 115.331 c 2
 182.532 163.414 l 1
 134.448 212.912 l 2
 125.433 221.928 121.009 233.494 121.009 245.109 c 0
 121.009 257.18 125.787 269.304 135.156 278.673 c 0
 144.172 287.689 155.738 292.113 167.354 292.113 c 0
 179.424 292.113 191.548 287.335 200.917 277.966 c 2
 249.707 229.175 l 1
 299.205 277.259 l 2
EndSplineSet
EndChar

StartChar: exclamdown
Encoding: 161 161 218
Width: 235
VWidth: 0
Flags: W
HStem: 391 20G<98 136> 476 138<64.8621 169.138>
VStem: 42 138<-117.138 187.25 498.649 591.351>
LayerCount: 2
Fore
SplineSet
186 545 m 4
 186 507 155 476 117 476 c 4
 79 476 48 507 48 545 c 4
 48 583 79 614 117 614 c 4
 155 614 186 583 186 545 c 4
180 -65 m 4
 180 -103 149 -134 111 -134 c 4
 73 -134 42 -103 42 -65 c 4
 42 -27 79 411 117 411 c 4
 155 411 180 -27 180 -65 c 4
EndSplineSet
EndChar

StartChar: questiondown
Encoding: 191 191 219
Width: 486
VWidth: -1282
Flags: W
HStem: -143.597 96.6523<137.93 291.701> 395.396 20G<189.703 211.83> 478.787 138.193<166.446 270.576>
VStem: 5.67285 120.361<-34.2412 102.043> 149.415 138.192<495.818 599.949> 353.012 90.3262<10.1348 79.9025>
LayerCount: 2
Fore
SplineSet
287.607 548.44 m 0
 287.607 510.108 257.561 478.787 219.068 478.787 c 0
 180.736 478.787 149.415 508.834 149.415 547.327 c 0
 149.415 585.659 179.462 616.98 217.954 616.98 c 0
 256.286 616.98 287.607 586.934 287.607 548.44 c 0
201.412 415.396 m 0
 222.248 415.396 223.017 360.941 223.017 322.195 c 0
 223.017 319.509 223.013 316.896 223.012 314.384 c 8
 222.991 261.711 203.012 225.384 183.012 185.384 c 0
 143.907 104.17 126.034 77.71 126.034 16.4922 c 0
 126.034 -15.1816 136.458 -46.9443 212.104 -46.9443 c 0
 277.122 -46.9443 339.842 0.706055 353.012 53.3838 c 0
 358.495 71.6641 378.181 85.7666 397.561 85.7666 c 0
 422.628 85.7666 443.338 64.2334 443.338 39.8359 c 0
 443.338 38.0332 443.23 36.2139 443.012 34.3838 c 0
 443.012 25.2607 411.582 -77.8232 305.012 -119.616 c 0
 268.582 -133.902 229.604 -143.597 191.717 -143.597 c 0
 136.837 -143.597 22 -114.539 8.01172 -16.6162 c 0
 6.44336 -5.64062 5.67285 4.57129 5.67285 14.2842 c 0
 5.67285 97.4932 62.1963 144.187 158.012 322.384 c 0
 176.853 357.091 177.993 415.396 201.412 415.396 c 0
EndSplineSet
EndChar

StartChar: sterling
Encoding: 163 163 220
Width: 651
VWidth: -1282
Flags: W
HStem: -3 92<279.232 496.365> 15.1384 91.7466<191.992 414.55> 328.303 94.1999<62.0992 133.55 226.825 373.901> 520.044 21G<448.496 459.498> 674.038 91.9763<244.094 387.16>
VStem: 122.515 96.1171<456.83 650.822> 134.55 92.2753<149.621 328.303 423.625 573.58> 406.762 92.9995<528.46 657.002>
LayerCount: 2
Fore
SplineSet
266 422 m 1x7d
 335 421 l 2
 361 421 381 399 381 373 c 0
 381 347 359 327 333 327 c 2
 226.825 328.303 l 1
 225.874 193.444 201.863 134.591 191 102 c 1
 218 104 l 2
 238.041 105.485 258.345 106.885 279.081 106.885 c 0x7b
 347.562 106.885 376.529 89 417 89 c 0
 490.901 89 508.504 135 542 135 c 0
 567 135 588 114 588 89 c 0
 588 77 580 62 571 54 c 0
 528 17 473 -3 417 -3 c 0xbb
 351.778 -3 350.784 15.1384 272.592 15.1384 c 0
 257.344 15.1384 241.779 14.3923 226 13 c 2
 119 3 l 1
 115 3 l 2
 90 3 69 24 69 49 c 0
 69 89.0539 133.809 116.041 134.55 329.514 c 1x7b
 101 330 l 2
 75 330 55 352 55 378 c 0
 55 404 77 424 103 424 c 2
 133.55 423.625 l 1
 132.895 447.813 131.832 471.643 130.126 493.398 c 0
 128.291 516.792 122.515 544.17 122.515 575.024 c 0
 122.515 604.937 127.944 638.117 147.657 674.101 c 0
 180.903 734.788 237.26 765.492 301.638 765.999 c 0
 302.921 766.009 304.207 766.014 305.494 766.014 c 0
 369.908 766.014 438.847 752.865 482.021 676.679 c 0
 495.941 652.115 499.761 627.603 499.761 605.837 c 0
 499.761 588.271 497.273 572.494 495.596 559.92 c 0
 492.142 534.015 469.569 520.044 449.427 520.044 c 0
 447.565 520.044 445.724 520.163 443.92 520.404 c 0
 424.235 523.028 403.978 540.751 403.978 565.746 c 0
 403.978 567.809 404.116 569.922 404.404 572.08 c 0
 405.961 583.763 406.762 594.316 406.762 603.358 c 0
 406.762 615.96 405.207 625.626 401.979 631.321 c 0
 380.587 669.071 363.096 674.038 310.802 674.038 c 0
 308.085 674.038 305.273 674.024 302.362 674.001 c 0
 266.488 673.719 246.524 663.086 228.343 629.899 c 0
 220.846 616.214 218.632 600.929 218.632 581.682 c 0
 218.632 557.755 222.054 527.707 223 487 c 0
 223.491 465.867 224.289 444.342 225.031 422.503 c 1
 266 422 l 1x7d
EndSplineSet
EndChar

StartChar: copyright
Encoding: 169 169 221
Width: 954
VWidth: 0
Flags: W
HStem: -173.5 91<346.029 597.971> 86.123 87.4961<430.965 509.146> 328.085 86.915<440.432 522.161> 594.5 91<346.029 597.971>
VStem: 26.5 91<139.09 372.91> 335.938 85.8887<180.691 307.303> 826.5 91<139.09 372.91>
LayerCount: 2
Fore
SplineSet
335.938 242.177 m 4
 335.938 362.685 417.356 415 483 415 c 4
 545.512 415 592 368.8 592 338 c 4
 592 314 572 295 548 295 c 4
 514.659 295 515.767 328.085 479.663 328.085 c 4
 471.53 328.085 448.014 316.394 439 304 c 4
 425.686 286.247 421.826 280.313 421.826 249.831 c 4
 421.826 245.972 421.888 241.72 422 237 c 4
 422 182.813 451.713 173.619 471.521 173.619 c 4
 495.5 173.619 507.553 189.212 509 195 c 4
 515 211 533 224 550 224 c 4
 574 224 593 205 593 181 c 4
 593 148.222 548.257 86.123 471.842 86.123 c 4
 405.776 86.123 335.938 136.445 335.938 242.177 c 4
472 685.5 m 0
 716.531 685.5 917.5 494.491 917.5 256 c 0
 917.5 17.502 716.532 -173.5 472 -173.5 c 0
 227.469 -173.5 26.5 17.5088 26.5 256 c 0
 26.5 494.498 227.468 685.5 472 685.5 c 0
117.5 256 m 0
 117.5 70.5557 274.932 -82.5 472 -82.5 c 0
 669.067 -82.5 826.5 70.5625 826.5 256 c 0
 826.5 441.444 669.068 594.5 472 594.5 c 0
 274.933 594.5 117.5 441.438 117.5 256 c 0
EndSplineSet
EndChar

StartChar: registered
Encoding: 174 174 222
Width: 954
VWidth: 0
Flags: W
HStem: -173.5 91<346.029 597.971> -26.1846 75.5986<630.195 672.285> 164.436 75.2188<419.091 525.77> 409.332 72.3115<241.191 314.346> 451.341 75.5967<412.649 556.266> 538.064 20G<336.095 359.448> 594.5 91<346.029 597.971>
VStem: 26.5 91<139.09 372.91> 346.427 71.124<24.6693 181.713 250.411 259.545 260.123 433.983> 557.253 71.1416<48.1186 162.023> 603.768 70.5781<281.399 406.05> 826.5 91<139.09 372.91>
LayerCount: 2
Fore
SplineSet
388.678 521.087 m 5xf7d0
 415.452 525.639 442.893 526.938 456.446 526.938 c 4
 612.354 526.938 674.346 430.319 674.346 346.763 c 4xefb0
 674.346 287.975 647.182 235.235 599.783 199.791 c 5
 599.783 198.969 l 5
 619.157 173.235 629.426 145.54 629.426 107.757 c 4
 629.426 94.6094 628.395 83.6533 628.395 74.8877 c 4
 628.395 68.5361 630.036 49.4141 639.221 49.4141 c 4
 658.553 49.4141 674.792 32.1582 674.792 11.6152 c 4
 674.792 -8.92773 658.553 -26.1846 639.221 -26.1846 c 4
 590.04 -26.1846 557.253 17.5 557.253 73.2451 c 4
 557.253 88.6523 558.558 101.286 558.558 111.146 c 4
 558.558 124.52 554.668 151.01 526.322 167.743 c 5
 514.542 165.553 502.538 164.436 490.523 164.436 c 4
 459.064 164.436 433.405 171.545 411.876 181.713 c 5
 412.044 172.257 412.176 162.762 412.176 153.212 c 4
 412.176 73.2129 398.846 21.7617 387.131 -7.28516 c 5
 382.491 -21.2539 367.026 -31.9365 353.106 -31.9365 c 4
 333.774 -31.9365 318.31 -14.6807 318.31 5.86328 c 4
 318.31 25.6475 340.541 44.2734 340.541 148.33 c 4
 340.541 178.221 339.188 209.651 339.188 242.521 c 5
 336.868 248.272 334.548 254.847 334.548 259.777 c 4
 334.548 267.173 336.868 273.746 339.961 279.498 c 5
 341.775 319.029 346.427 351.413 346.427 388.525 c 4
 346.427 404.148 345.417 419.546 343.055 433.983 c 5
 300.538 420.807 287.996 409.332 274.232 409.332 c 4
 254.9 409.332 238.661 426.588 238.661 447.131 c 4
 238.661 461.101 247.94 475.892 260.313 481.644 c 4
 278.099 489.861 296.657 498.078 315.216 503.83 c 5
 312.896 508.761 311.35 515.335 311.35 520.265 c 4
 311.35 539.986 326.815 557.243 345.374 558.064 c 5
 346.921 558.064 l 6
 371.975 558.064 385.979 526.248 388.678 521.087 c 5xf7d0
491.344 239.654 m 4
 511.403 239.654 518.088 244.164 524.775 244.164 c 5
 574.306 258.784 603.768 304.566 603.768 344.835 c 4
 603.768 387.438 571.814 451.341 456.918 451.341 c 4
 454.288 451.341 451.646 451.308 448.994 451.24 c 4
 436.621 451.24 425.022 449.597 412.649 447.953 c 5
 416.29 427.318 417.551 407.189 417.551 387.566 c 4
 417.551 340.724 411.2 305.611 410.33 270.459 c 5
 428.333 253.72 458.938 239.654 491.344 239.654 c 4
472 685.5 m 0
 716.531 685.5 917.5 494.491 917.5 256 c 0
 917.5 17.502 716.532 -173.5 472 -173.5 c 0
 227.469 -173.5 26.5 17.5088 26.5 256 c 0
 26.5 494.498 227.468 685.5 472 685.5 c 0
117.5 256 m 0
 117.5 70.5557 274.932 -82.5 472 -82.5 c 0
 669.067 -82.5 826.5 70.5625 826.5 256 c 0
 826.5 441.444 669.068 594.5 472 594.5 c 0
 274.933 594.5 117.5 441.438 117.5 256 c 0
EndSplineSet
EndChar

StartChar: yen
Encoding: 165 165 223
Width: 640
VWidth: -1282
Flags: W
HStem: -23 21G<132.5 148.5> 236.967 94.1663<141.699 274.701 408.859 532.901> 604 87<24.1244 85.8375> 692 20G<571.523 599.5>
VStem: 274.701 104.694<189.165 236.967>
LayerCount: 2
Fore
SplineSet
62 691 m 1
 64 691 l 2
 91.0416 691 200.044 627.088 275 537 c 0
 300.878 505.898 318 441 330 402 c 1
 336 420 354.027 469.988 362 488 c 0
 427.242 635.388 557.046 712 586 712 c 2
 587 712 l 2
 612 712 633 691 633 666 c 0
 633 651 622 632 608 625 c 0
 537 588 478.315 524.863 446 451 c 0
 430.885 416.45 420.866 375.482 408.859 331.133 c 1
 425 331 l 1
 494 330 l 2
 520 330 540 308 540 282 c 0
 540 256 518 236 492 236 c 2
 379.395 236.967 l 1
 349.926 159.057 302.187 77.6117 205 6 c 0
 204 5 203 5 202 4 c 2
 169 -16 l 2
 163 -20 152 -23 145 -23 c 0
 120 -23 99 -2 99 23 c 0
 99 38 109 56 122 63 c 2
 152 81 l 1
 186.077 105.99 254.427 168.768 274.701 237.865 c 1
 259 238 l 1
 180 239 l 2
 154 239 134 261 134 287 c 0
 134 313 156.002 333.214 182 333 c 2
 278.312 332.207 l 1
 267.862 389.16 236.688 438.049 204 478 c 0
 160 530 105 574 44 604 c 0
 29 611 18 629 18 645 c 0
 18 669 38 690 62 691 c 1
EndSplineSet
EndChar

StartChar: uni00AD
Encoding: 173 173 224
Width: 498
VWidth: 0
Flags: W
HStem: 114 95<94.332 404.901>
VStem: 86 326<122.964 202.036>
LayerCount: 2
Fore
SplineSet
297 209 m 1
 366 208 l 2
 392 208 412 186 412 160 c 0
 412 134 390 114 364 114 c 2
 201 116 l 1
 132 117 l 2
 106 117 86 139 86 165 c 0
 86 191 108 211 134 211 c 2
 297 209 l 1
EndSplineSet
EndChar

StartChar: macron
Encoding: 175 175 225
Width: 498
VWidth: 0
Flags: W
HStem: 664 95<94.332 404.901>
VStem: 86 326<672.964 752.036>
LayerCount: 2
Fore
SplineSet
297 759 m 5
 366 758 l 6
 392 758 412 736 412 710 c 4
 412 684 390 664 364 664 c 6
 201 666 l 5
 132 667 l 6
 106 667 86 689 86 715 c 4
 86 741 108 761 134 761 c 6
 297 759 l 5
EndSplineSet
EndChar

StartChar: cedilla
Encoding: 184 184 226
Width: 302
VWidth: -1282
Flags: W
HStem: -239 87.082<113.732 195.453> -20.3395 20G<93.9043 107.326>
VStem: 88.21 87.2578<-38.8566 -1.03687>
LayerCount: 2
Fore
SplineSet
175.468 -2.35254 m 4
 175.465 -63.3486 282.875 -35.6143 282.875 -137.74 c 4
 282.875 -198.496 225.313 -239 163 -239 c 4
 88.3535 -239 29.4648 -179.606 29.4648 -145.349 c 4
 29.4648 -121.349 48.4648 -102.349 72.4648 -102.349 c 4
 112.857 -102.349 109.333 -151.918 163.13 -151.918 c 4
 184.488 -151.918 196.465 -141.062 196.465 -138.349 c 6
 196.465 -137.349 l 5
 186.829 -118.076 88.21 -103.226 88.21 -0.461914 c 4
 88.21 -0.379586 91.3558 -0.339541 96.4528 -0.339541 c 0
 118.2 -0.339541 175.468 -1.06852 175.468 -2.35254 c 4
EndSplineSet
EndChar

StartChar: guillemotleft
Encoding: 171 171 229
Width: 638
VWidth: 0
Flags: W
HStem: 75 340<283 316.021 543 576.021>
LayerCount: 2
Fore
SplineSet
551 415 m 4
 576.021 415 596 395.845 596 370 c 4
 596 355 589 341 576 332 c 6
 442 244 l 5
 576 158 l 6
 589 149 596 135 596 120 c 4
 596 95.0654 577.142 75 551 75 c 4
 543 75 534 77 526 82 c 6
 334 206 l 6
 320 215 313 228 313 244 c 4
 313 260 321 273 334 282 c 6
 526 408 l 6
 534 413 542 415 551 415 c 4
291 415 m 4
 316.021 415 336 395.845 336 370 c 4
 336 355 329 341 316 332 c 6
 182 244 l 5
 316 158 l 6
 329 149 336 135 336 120 c 4
 336 95.0659 317.142 75 291 75 c 4
 283 75 274 77 266 82 c 6
 74 206 l 6
 60 215 53 228 53 244 c 4
 53 260 61 273 74 282 c 6
 266 408 l 6
 274 413 282 415 291 415 c 4
EndSplineSet
EndChar

StartChar: guillemotright
Encoding: 187 187 230
Width: 638
VWidth: 0
Flags: W
HStem: 75 340<62.9785 96 322.979 356>
LayerCount: 2
Fore
SplineSet
88 75 m 4
 62.9785 75 43 94.1553 43 120 c 4
 43 135 50 149 63 158 c 6
 197 246 l 5
 63 332 l 6
 50 341 43 355 43 370 c 4
 43 394.935 61.8584 415 88 415 c 4
 96 415 105 413 113 408 c 6
 305 284 l 6
 319 275 326 262 326 246 c 4
 326 230 318 217 305 208 c 6
 113 82 l 6
 105 77 97 75 88 75 c 4
348 75 m 4
 322.979 75 303 94.1553 303 120 c 4
 303 135 310 149 323 158 c 6
 457 246 l 5
 323 332 l 6
 310 341 303 355 303 370 c 4
 303 394.934 321.858 415 348 415 c 4
 356 415 365 413 373 408 c 6
 565 284 l 6
 579 275 586 262 586 246 c 4
 586 230 578 217 565 208 c 6
 373 82 l 6
 365 77 357 75 348 75 c 4
EndSplineSet
EndChar

StartChar: uni00B9
Encoding: 185 185 231
Width: 307
VWidth: 0
Flags: W
HStem: 474 175<89 158>
VStem: 42 187.144
LayerCount: 2
Fore
SplineSet
89 474 m 4
 63.8184 474 42 495.873 42 521 c 4
 42 534 48 547 59 557 c 6
 88 581 l 5
 117 625 l 5
 125 641 141 649 158 649 c 4
 185.703 649 202.936 628.704 205 606 c 6
 229 348 l 6
 229.097 346.741 229.144 345.49 229.144 344.248 c 4
 229.144 319.823 210.742 298.903 186 297 c 5
 182 297 l 6
 158 297 137 315 135 340 c 6
 122 487 l 5
 112.394 480.596 104.651 474 89 474 c 4
EndSplineSet
EndChar

StartChar: Eth
Encoding: 208 208 232
Width: 758
VWidth: -1282
Flags: W
HStem: -0.103204 92.0675<273.699 486.161> 87 87<70.1824 135.354> 311.899 94.0759<96.6992 201.637 301.759 407.901> 559.449 91.623<297.167 531.525> 626 88<115.182 160.478> 703 20G<181.29 194.5>
VStem: 201.637 92.1266<146.22 311.899> 213.407 91.864<407.113 561.513> 607.11 92.36<216.195 463.887>
LayerCount: 2
Fore
SplineSet
295.415 562.417 m 1xb280
 299.861 545.25 305.271 517.861 305.271 473.379 c 0xb180
 305.271 450.203 303.721 427.696 301.759 405.974 c 1
 369 405 l 2
 395 405 415 383 415 357 c 0
 415 331 393 311 367 311 c 2
 293.764 311.899 l 1
 292.082 276.442 291.655 237.759 285 197 c 0
 279.075 162.299 270.286 133.329 268.937 110.089 c 1
 321.489 93.9373 356.588 91.9643 378.501 91.9643 c 0
 474.503 91.9643 607.11 140.586 607.11 335.075 c 0
 607.11 449.273 562.304 566.5 442.375 566.5 c 0
 406.654 566.5 372.708 559.449 334.564 559.449 c 0
 321.872 559.449 308.768 560.249 295.415 562.417 c 1xb280
110 174 m 0x6180
 123.96 174 125.1 170.643 179.798 145.033 c 1
 183.76 170.401 190.406 192.492 194 212 c 0
 199.666 242.756 200.091 276.788 201.637 313.034 c 1x6280
 135 314 l 2
 109 314 89 336 89 362 c 0
 89 388 111 408 137 408 c 2
 209.275 407.113 l 1
 211.568 431.379 213.407 454.537 213.407 476.587 c 0
 213.407 552.447 188.68 602.964 138 626 c 0
 122 633 109 651 109 668 c 0
 109 693 130 714 155 714 c 2
 156 714 l 2x6980
 157.341 714 158.899 713.856 160.556 713.607 c 1
 167.776 719.134 176.58 722.607 186 723 c 2
 188 723 l 2
 201 723 216.975 714.982 225 704 c 0
 235.946 689.021 268.031 651.072 332.577 651.072 c 0
 367.598 651.072 407.086 658.53 445.319 658.53 c 0
 597.81 658.53 699.47 522.335 699.47 335.169 c 0
 699.47 123.423 559.629 -0.103204 380.576 -0.103204 c 0xb580
 348.607 -0.103204 315.566 3.30017 274.071 13.2573 c 1
 265.306 2.23066 251.67 -4.99999 237 -5 c 0
 207.869 -5 195.32 21.3798 188.449 40.6268 c 1
 168.063 48.6397 127.272 65.7376 89 87 c 0
 75 94 64 112 64 128 c 0
 64 153 85 174 110 174 c 0x6180
EndSplineSet
EndChar

StartChar: AE
Encoding: 198 198 233
Width: 1028
VWidth: -1282
Flags: W
HStem: -9 91.7813<195.824 280.528> 9.33789 91.5742<694.914 879.171> 188 180<132.531 216.456> 196 92<419.458 526.059> 350.423 89.8516<662.64 807.298> 459 120<162.043 222.766> 522 21G<311.264 349.5 870 888.5> 604.188 91.812<157.133 249.635 435.016 460.895> 644.885 91.1152<626.447 781.91>
VStem: 60 91.548<551.489 602.042> 86 152<208.865 272.621> 461 139.189<535.313 604.171> 538.791 104.771<301.567 346.016>
LayerCount: 2
Fore
SplineSet
726.982 80.9999 m 2x00
 727 81 l 2
 727 81.2181 726.996 81.2006 726.982 80.9999 c 2x00
517.376 505.13 m 1
 483.039 457.409 438.247 423.48 421 320 c 0
 420 314 420 307 419 301 c 0
 419.207 300.931 440.89 288 473 288 c 0
 486.149 288 520.731 293.954 538.791 329.584 c 1x1008
 537.581 362.236 545.29 390.53 580 411 c 1
 551.276 437.114 529.026 468.874 517.376 505.13 c 1
551.616 199.605 m 1
 550.328 203.989 549.031 208.299 548 215 c 1
 526 204 501 197 476 196 c 0
 474 196 472 196 470 196 c 0x5888
 448 196 428 201 410 206 c 1
 410 205 409 203 409 202 c 0
 399.701 127.611 379.476 61.0541 322 20 c 0
 301 4 274 -7 246 -9 c 1
 236 -9 l 2
 160.363 -9 105 50.3105 105 89 c 0
 105 114 125 135 150 135 c 0
 166 135 185 123 192 109 c 0
 200.208 92.584 216.326 82.7813 234.352 82.7813 c 0
 254.273 82.7813 276.522 94.7527 293 123 c 0
 317.257 164.583 319.826 233.083 321 246 c 1
 255.977 277.098 243.789 273.535 235 275 c 1
 236 271 238 265 238 261 c 0
 238 259 237 257 237 255 c 0
 230.937 209.528 193.311 188 161 188 c 0
 131.033 188 86 210.363 86 267 c 0
 86 327.6 146.544 368 220 368 c 0
 264.8 368 311.365 351.171 332 342 c 1
 360.7 510.1 461 519.604 461 588 c 0
 461 600.132 454.45 604.188 452.812 604.188 c 0
 451.612 604.188 449.253 603.467 447 600 c 2
 434 580 l 2
 418.967 557.451 395.803 528.019 359 523 c 0
 355 523 351 522 348 522 c 0xa330
 274.529 522 255.037 601.138 207 608 c 0
 205 608 202 609 200 609 c 0
 167.866 609 151.548 584.831 151.548 567.26 c 0
 151.548 559.974 154.353 553.823 160 551 c 1
 166 567 186 579 203 579 c 0
 228 579 249 558 249 533 c 0
 249 517.1 227.7 459 161 459 c 2
 154 459 l 1
 99.6591 462.623 60 513.981 60 570 c 0
 60 636.15 116.266 701 196 701 c 0
 279.833 701 332.447 627.553 341 619 c 0
 343 617 345 616 346 615 c 1
 359.07 628.07 383.89 696 451 696 c 0x0550
 494.064 696 520.826 671.062 532.978 653.224 c 1
 564.602 704.942 623.312 736 689 736 c 0
 822.2 736 893.596 651.856 911 630 c 0
 917 623 922 610 922 601 c 0
 922 576 901 555 876 555 c 0
 864 555 848.034 563.027 840 573 c 0
 793.366 630.891 725.768 644.885 692.571 644.885 c 0
 629.295 644.885 600.189 602.927 600.189 560.641 c 0x00d0
 600.189 500.12 665.968 440.274 744.067 440.274 c 0
 779.371 440.274 793.011 451 808 451 c 0
 833 451 854 430 854 405 c 0
 854 386 839 366 821 361 c 0
 795.637 352.794 769.161 348.484 742.818 348.484 c 0
 733.847 348.484 724.891 348.984 716 350 c 1
 708 350 l 2
 704.219 350.28 700.417 350.423 696.61 350.423 c 0
 618.313 350.423 643.562 287.989 643.562 216.744 c 0
 643.562 194.341 646 166 659 152 c 0
 695.58 112.606 753.793 100.912 806.599 100.912 c 0
 883.721 100.912 886 136 912 178 c 0
 918.338 188.239 934 194 946 194 c 0
 971 194 992 173 992 148 c 0
 992 138 984.502 125.817 980 117 c 0
 956 70 899.277 9.33789 803.461 9.33789 c 0x4888
 727.09 9.33789 653 28 593 87 c 0
 569.363 110.244 554.344 149.721 551.616 199.605 c 1
EndSplineSet
EndChar

StartChar: ae
Encoding: 230 230 234
Width: 553
VWidth: -1282
Flags: W
HStem: -2 86<105.357 160.804 296.086 380.22> 243 86.444<131.222 212.464 306.546 367.745>
VStem: 14.9045 86.0955<86.0304 210.416>
LayerCount: 2
Fore
SplineSet
101 131 m 0
 101 107.135 113.506 88.6235 128 85 c 1
 153.671 85 175.937 118.486 207.687 213.76 c 0
 208.328 215.802 208.998 217.827 209.697 219.834 c 2
 213 230 l 1
 204 237 193 242 183 243 c 1
 172 243 l 1
 123.867 238.989 101 169.961 101 131 c 0
14.9045 133.57 m 0
 14.9045 195.679 55.624 329 178 329 c 0
 181.333 329 184.667 329.444 188 329.444 c 0
 193.428 328.962 236.373 316.818 266.643 302.159 c 1
 288.416 319.121 313.928 329 341 329 c 0
 395.65 329 438 286.4 438 258 c 1
 463.881 276.486 476.4 282 486 282 c 0
 510 282 529 263 529 239 c 0
 529 228 522 212 513 205 c 0
 442.215 148.094 364.07 124.938 290 120 c 1
 299.373 95.0059 315.2 84 332 84 c 0
 342.4 84 368.162 92.5225 384 111 c 0
 391 120 406 127 417 127 c 0
 441 127 460 108 460 84 c 0
 460 44.9004 390.691 -2 332 -2 c 0
 286.708 -2 251.642 19.2372 228.761 50.7531 c 1
 223.664 45.3481 185.426 -1.32415 132.88 -1.32415 c 0
 64.7632 -1.32415 14.9045 55.9607 14.9045 133.57 c 0
368 223 m 1
 362.581 226.612 355.146 242.657 341.971 242.657 c 1
 313.966 238.956 313.584 229.875 299 208 c 1
 326.888 211.984 307.572 204.116 368 223 c 1
294.95 123.56 m 2
 295 123 l 2
 295.41 123.137 295.353 123.329 294.95 123.56 c 2
EndSplineSet
EndChar

StartChar: Thorn
Encoding: 222 222 235
Width: 383
VWidth: -1282
Flags: W
HStem: -255 21G<59 78.5> -3.25 86.6944<142 238.702> 239 86.255<203.963 260.612> 552 20G<50 88.5>
VStem: 16 123<377.72 446.627> 58.1986 86.1934<-187.273 -3.56867> 265.75 85.907<109.986 237.383>
LayerCount: 2
Fore
SplineSet
60.565 199.198 m 0xf6
 60.565 299.829 16 484.77 16 516 c 0
 16 540 38 572 62 572 c 2
 63 572 l 2
 114 572 129.565 320.177 139 273 c 1xfa
 157.61 297.813 193.412 325.255 242.853 325.255 c 0
 286.375 325.255 351.657 300.957 351.657 175.289 c 0
 351.657 133.776 349.517 35.0278 215 3 c 0
 195 -1.16667 175 -3.25 154.421 -3.25 c 0
 150.306 -3.25 146.167 -3.16667 142 -3 c 1
 143.464 -22.7654 144.392 -44.1384 144.392 -66.3346 c 0
 144.392 -115.553 138.409 -171.07 111 -230 c 0
 105 -244 86 -255 71 -255 c 0
 47 -255 28 -236 28 -212 c 0
 28 -189.715 58.1986 -155.347 58.1986 -74.5286 c 0
 58.1986 -47.9047 55.7267 -18.943 54 13 c 1
 47.52 21.64 42 41.8 42 49 c 0
 42 67.3097 50.1518 68.9109 54 92 c 1
 56.8576 134.864 60.565 167.059 60.565 199.198 c 0xf6
265.75 169.875 m 0
 265.75 200.138 261.2 239 243 239 c 0
 214.893 239 198.785 209.178 188 193 c 0
 167 159 151 123 141 84 c 1
 147 83.6667 153.111 83.4444 159.259 83.4444 c 0
 227.164 83.4444 261.69 115.589 265 152 c 0
 265.5 157.5 265.75 163.5 265.75 169.875 c 0
EndSplineSet
EndChar

StartChar: divide
Encoding: 247 247 236
Width: 380
VWidth: 0
Flags: W
HStem: -54 138<138.862 243.138> 114 95<34.332 344.901> 245 138<138.862 243.138>
VStem: 122 138<-37.1379 67.1379 261.862 366.138>
LayerCount: 2
Fore
SplineSet
237 209 m 1
 306 208 l 2
 332 208 352 186 352 160 c 0
 352 134 330 114 304 114 c 2
 141 116 l 1
 72 117 l 2
 46 117 26 139 26 165 c 0
 26 191 48 211 74 211 c 2
 237 209 l 1
122 314 m 0
 122 352 153 383 191 383 c 0
 229 383 260 352 260 314 c 0
 260 276 229 245 191 245 c 0
 153 245 122 276 122 314 c 0
122 15 m 0
 122 53 153 84 191 84 c 0
 229 84 260 53 260 15 c 0
 260 -23 229 -54 191 -54 c 0
 153 -54 122 -23 122 15 c 0
EndSplineSet
EndChar

StartChar: degree
Encoding: 176 176 237
Width: 450
VWidth: 0
Flags: W
HStem: 316 94<137.877 252.123> 574 94<137.877 252.123>
VStem: 19 94<434.877 549.123> 277 94<434.877 549.123>
LayerCount: 2
Fore
SplineSet
195 668 m 4
 292 668 371 589 371 492 c 4
 371 395 292 316 195 316 c 4
 98 316 19 395 19 492 c 4
 19 589 98 668 195 668 c 4
113 492 m 4
 113 447 150 410 195 410 c 4
 240 410 277 447 277 492 c 4
 277 537 240 574 195 574 c 4
 150 574 113 537 113 492 c 4
EndSplineSet
EndChar
